<?xml version="1.0" encoding="utf-8"?><!-- Uploaded to: SVG Repo, www.svgrepo.com, Generator: SVG Repo Mixer Tools -->
<svg fill="#000000" width="800px" height="800px" viewBox="0 0 256 256" xmlns="http://www.w3.org/2000/svg"><path d="m98.8 207.7c9.6 10 8.9 20.2 8.9 27.8v20h-47.5v-8.4c0-5.5-1.1-9.1-5.4-13.1l-43.6-46.3a40.6 40.6 0 0 1 -9.7-26.3v-69.7a13.2 13.2 0 0 1 26.3 0v51h.1c-7 3.2-11.2 9.6-11.2 16.6a17.6 17.6 0 0 0 5.3 12.5l27 29.8a22.3 22.3 0 0 1 3.8 6.7 14.6 14.6 0 0 1 .6 4.9h8.6a26.1 26.1 0 0 0 -1-7.5 31.8 31.8 0 0 0 -6.1-10.5l-26.7-28.6a10.5 10.5 0 0 1 15.3-14.4zm142.1-129.1a13.2 13.2 0 0 0 -13.2 13.1v51a18.6 18.6 0 0 1 11.2 16.9 17.7 17.7 0 0 1 -5.3 12.5l-27.1 29.7a20.3 20.3 0 0 0 -3.8 6.7 17.7 17.7 0 0 0 -.6 4.9h-8.6a23.1 23.1 0 0 1 1-7.5 30.2 30.2 0 0 1 6.1-10.5l26.7-28.6a10.5 10.5 0 0 0 -15.3-14.4l-55.3 55.5c-9.5 10-8.9 20.2-8.9 27.8v20h47.4v-8.4c0-5.4 1.1-9 5.4-13.1l43.6-46.3a40.6 40.6 0 0 0 9.7-26.3v-69.9a13.1 13.1 0 0 0 -13-13.1zm-174.3 26.7c13.3 12.2 39.2 9.2 48 10.6 9.2 13.4 9.8 16.1 12.8 21.7l3.1-17.3c-3.7-4.4-8.5-8-15.3-14.8-4.2-9.9-9-28.8-19.2-38.2-16.4-14.7-41.3-9.9-43.5-10.5s-2.3 33.8 14.1 48.5zm100.7 53.2a1.4 1.4 0 0 0 -1.4-1.4h-20.6a1.3 1.3 0 0 1 -1.4-1.5c2-14.9 3.5-31.7 7.5-49.4 1.8-8 5.4-16.3 9.5-21.3a1.4 1.4 0 0 1 1.7-.4c14.3 7.1 33.6 2 45.8-13.2s12.1-56 11.9-66.7a1.4 1.4 0 0 0 -2.1-1.2 67.1 67.1 0 0 1 -24.4 9.7c-15.6 3.2-29.9 6.9-37.6 16.4-11.1 13.9-12.8 31.8-5.3 44.2a1.4 1.4 0 0 0 2.4-.1c5.4-9.9 16.9-19.8 26.2-26.7a1.4 1.4 0 0 1 1.8 2.1c-15.1 14.2-29.7 27.1-38.7 54.3-3.7 11.3-5 15.9-8.4 35.7 0 0-1 5.6-1.3 7.1l-1.8 10a1.4 1.4 0 0 1 -1.3 1.1h-34.8a1.4 1.4 0 0 0 -1.4 1.4 36.7 36.7 0 0 0 36.8 34.9c19.9-.1 36.1-15.6 36.9-35z"/></svg>