<?xml version="1.0" encoding="utf-8"?>
<!-- Generator: Adobe Illustrator 27.5.0, SVG Export Plug-In . SVG Version: 6.00 Build 0)  -->
<svg version="1.1" xmlns="http://www.w3.org/2000/svg" xmlns:xlink="http://www.w3.org/1999/xlink" x="0px" y="0px"
	 viewBox="0 0 800 800" style="enable-background:new 0 0 800 800;" xml:space="preserve">
<g id="background">
	<g>
		<path style="fill:#4C4C4C;" d="M286.024,774.287v-0.257c-0.349,0.398-0.692,0.724-1.031,0.973
			c-0.338,0.251-0.706,0.441-1.102,0.57c-0.396,0.132-0.827,0.195-1.296,0.195c-0.621,0-1.196-0.131-1.725-0.394
			c-0.528-0.263-0.986-0.639-1.372-1.126c-0.387-0.487-0.68-1.06-0.879-1.719c-0.199-0.659-0.299-1.371-0.299-2.137
			c0-1.621,0.396-2.886,1.188-3.791c0.792-0.904,1.833-1.357,3.125-1.357c0.747,0,1.377,0.129,1.89,0.384
			c0.513,0.257,1.013,0.652,1.501,1.183v-3.827c0-0.532,0.105-0.934,0.318-1.206c0.211-0.273,0.514-0.408,0.907-0.408
			c0.393,0,0.694,0.125,0.907,0.375c0.212,0.251,0.318,0.618,0.318,1.106v11.436c0,0.494-0.113,0.864-0.342,1.111
			c-0.228,0.246-0.522,0.37-0.883,0.37c-0.354,0-0.647-0.128-0.879-0.384C286.139,775.127,286.024,774.761,286.024,774.287z
			 M280.923,770.478c0,0.703,0.109,1.301,0.328,1.795c0.219,0.494,0.518,0.866,0.897,1.115c0.38,0.251,0.795,0.377,1.244,0.377
			c0.456,0,0.872-0.119,1.25-0.357c0.376-0.236,0.677-0.602,0.902-1.091c0.225-0.491,0.337-1.105,0.337-1.839
			c0-0.69-0.112-1.284-0.337-1.782c-0.225-0.496-0.528-0.876-0.912-1.14c-0.383-0.262-0.803-0.393-1.258-0.393
			c-0.475,0-0.899,0.135-1.273,0.403c-0.374,0.269-0.663,0.654-0.869,1.158C281.026,769.229,280.923,769.813,280.923,770.478z"/>
		<path style="fill:#4C4C4C;" d="M297.458,771.134h-5.071c0.006,0.588,0.124,1.107,0.356,1.557c0.23,0.45,0.538,0.789,0.921,1.017
			c0.383,0.229,0.806,0.341,1.268,0.341c0.31,0,0.593-0.035,0.85-0.107c0.257-0.074,0.505-0.187,0.746-0.343
			c0.241-0.154,0.462-0.321,0.664-0.499c0.202-0.178,0.464-0.419,0.788-0.723c0.133-0.113,0.323-0.171,0.571-0.171
			c0.266,0,0.48,0.074,0.645,0.22c0.165,0.146,0.248,0.351,0.248,0.617c0,0.234-0.093,0.507-0.275,0.821
			c-0.185,0.314-0.462,0.614-0.832,0.902c-0.371,0.288-0.835,0.526-1.397,0.717c-0.56,0.19-1.204,0.285-1.933,0.285
			c-1.664,0-2.96-0.476-3.884-1.425c-0.924-0.949-1.386-2.238-1.386-3.865c0-0.767,0.113-1.478,0.341-2.132
			c0.228-0.656,0.561-1.218,0.997-1.686c0.437-0.469,0.975-0.827,1.615-1.078c0.639-0.25,1.349-0.374,2.127-0.374
			c1.013,0,1.882,0.212,2.606,0.641c0.726,0.427,1.27,0.979,1.63,1.656c0.36,0.678,0.542,1.369,0.542,2.07
			c0,0.653-0.187,1.075-0.56,1.269C298.662,771.037,298.136,771.134,297.458,771.134z M292.386,769.662h4.702
			c-0.063-0.887-0.303-1.551-0.717-1.99c-0.415-0.44-0.96-0.66-1.638-0.66c-0.646,0-1.177,0.223-1.591,0.669
			C292.727,768.127,292.476,768.788,292.386,769.662z"/>
		<path style="fill:#4C4C4C;" d="M309.273,772.377c0,0.716-0.173,1.329-0.523,1.839c-0.348,0.51-0.862,0.896-1.543,1.159
			c-0.68,0.263-1.508,0.394-2.483,0.394c-0.931,0-1.728-0.143-2.394-0.428c-0.665-0.284-1.156-0.642-1.472-1.067
			c-0.317-0.429-0.475-0.857-0.475-1.288c0-0.285,0.101-0.528,0.304-0.731c0.202-0.202,0.459-0.304,0.77-0.304
			c0.272,0,0.48,0.066,0.626,0.199c0.146,0.133,0.286,0.32,0.417,0.56c0.266,0.464,0.585,0.807,0.956,1.036
			c0.37,0.227,0.875,0.342,1.515,0.342c0.519,0,0.945-0.116,1.277-0.347c0.332-0.232,0.498-0.496,0.498-0.794
			c0-0.456-0.172-0.787-0.518-0.996c-0.345-0.209-0.914-0.409-1.705-0.6c-0.893-0.221-1.619-0.454-2.18-0.698
			c-0.561-0.242-1.008-0.565-1.344-0.963c-0.335-0.399-0.503-0.891-0.503-1.473c0-0.518,0.155-1.01,0.465-1.473
			c0.311-0.461,0.768-0.83,1.374-1.105c0.603-0.276,1.333-0.414,2.188-0.414c0.671,0,1.275,0.069,1.809,0.21
			c0.536,0.138,0.983,0.326,1.34,0.561c0.358,0.233,0.63,0.493,0.816,0.777c0.187,0.285,0.28,0.563,0.28,0.837
			c0,0.297-0.1,0.541-0.298,0.731c-0.199,0.188-0.482,0.285-0.85,0.285c-0.266,0-0.492-0.076-0.679-0.23
			c-0.187-0.151-0.4-0.379-0.641-0.683c-0.196-0.253-0.426-0.456-0.693-0.608c-0.266-0.152-0.627-0.228-1.083-0.228
			c-0.469,0-0.857,0.099-1.168,0.3c-0.31,0.198-0.465,0.446-0.465,0.744c0,0.273,0.114,0.496,0.341,0.67
			c0.229,0.175,0.535,0.319,0.922,0.433c0.386,0.113,0.917,0.252,1.596,0.417c0.803,0.197,1.46,0.432,1.97,0.703
			c0.509,0.271,0.895,0.594,1.16,0.965C309.142,771.48,309.273,771.902,309.273,772.377z"/>
		<path style="fill:#4C4C4C;" d="M311.922,764.02c-0.361,0-0.669-0.111-0.926-0.333c-0.256-0.221-0.385-0.534-0.385-0.94
			c0-0.368,0.131-0.669,0.394-0.907c0.263-0.238,0.569-0.356,0.917-0.356c0.336,0,0.633,0.107,0.893,0.323
			c0.26,0.216,0.39,0.528,0.39,0.94c0,0.399-0.127,0.711-0.381,0.936C312.57,763.907,312.27,764.02,311.922,764.02z
			 M313.204,766.698v7.493c0,0.52-0.124,0.913-0.371,1.179c-0.247,0.266-0.56,0.398-0.94,0.398s-0.689-0.136-0.926-0.408
			c-0.238-0.273-0.356-0.662-0.356-1.169v-7.418c0-0.512,0.118-0.898,0.356-1.158c0.237-0.26,0.546-0.39,0.926-0.39
			s0.693,0.13,0.94,0.39C313.081,765.875,313.204,766.236,313.204,766.698z"/>
		<path style="fill:#4C4C4C;" d="M324.563,767.125v7.531c0,0.861-0.093,1.602-0.277,2.224c-0.182,0.619-0.477,1.133-0.883,1.538
			c-0.405,0.404-0.936,0.706-1.59,0.901c-0.655,0.197-1.471,0.295-2.446,0.295c-0.893,0-1.69-0.125-2.393-0.375
			c-0.702-0.251-1.243-0.573-1.624-0.969c-0.379-0.396-0.57-0.803-0.57-1.221c0-0.316,0.108-0.575,0.324-0.773
			c0.215-0.2,0.475-0.3,0.778-0.3c0.38,0,0.712,0.168,0.997,0.503c0.139,0.171,0.283,0.345,0.432,0.519
			c0.149,0.175,0.314,0.323,0.494,0.447c0.181,0.122,0.398,0.214,0.65,0.274c0.253,0.059,0.545,0.09,0.874,0.09
			c0.671,0,1.192-0.093,1.563-0.28c0.371-0.186,0.63-0.448,0.779-0.784c0.149-0.334,0.236-0.693,0.261-1.077
			c0.025-0.384,0.044-0.999,0.057-1.849c-0.399,0.559-0.859,0.983-1.382,1.274c-0.522,0.291-1.145,0.437-1.866,0.437
			c-0.868,0-1.625-0.222-2.275-0.665c-0.648-0.443-1.147-1.063-1.495-1.861c-0.349-0.799-0.522-1.719-0.522-2.764
			c0-0.778,0.105-1.482,0.317-2.108c0.213-0.628,0.515-1.156,0.907-1.587c0.393-0.431,0.845-0.755,1.358-0.974
			c0.513-0.218,1.076-0.327,1.691-0.327c0.734,0,1.371,0.142,1.909,0.422c0.538,0.283,1.039,0.725,1.501,1.326v-0.352
			c0-0.449,0.11-0.797,0.332-1.045c0.222-0.246,0.507-0.37,0.855-0.37c0.5,0,0.832,0.164,0.997,0.489
			C324.48,766.041,324.563,766.511,324.563,767.125z M317.05,770.412c0,1.051,0.229,1.846,0.688,2.384
			c0.459,0.539,1.053,0.808,1.781,0.808c0.43,0,0.837-0.116,1.22-0.347c0.384-0.232,0.695-0.58,0.937-1.045
			c0.24-0.466,0.361-1.03,0.361-1.695c0-1.057-0.232-1.881-0.698-2.469c-0.466-0.589-1.078-0.884-1.838-0.884
			c-0.741,0-1.334,0.282-1.78,0.846C317.273,768.572,317.05,769.374,317.05,770.412z"/>
		<path style="fill:#4C4C4C;" d="M328.684,766.66v0.313c0.455-0.602,0.954-1.043,1.496-1.325c0.542-0.281,1.163-0.423,1.866-0.423
			c0.684,0,1.295,0.149,1.833,0.447c0.538,0.298,0.941,0.719,1.206,1.262c0.172,0.317,0.282,0.66,0.333,1.026
			c0.051,0.368,0.077,0.836,0.077,1.406v4.824c0,0.52-0.119,0.913-0.357,1.179c-0.237,0.266-0.546,0.398-0.926,0.398
			c-0.387,0-0.7-0.136-0.941-0.408c-0.241-0.273-0.361-0.662-0.361-1.169v-4.321c0-0.854-0.119-1.509-0.357-1.961
			c-0.238-0.452-0.71-0.68-1.42-0.68c-0.461,0-0.883,0.138-1.263,0.413c-0.38,0.276-0.659,0.655-0.836,1.136
			c-0.126,0.387-0.19,1.107-0.19,2.165v3.248c0,0.525-0.123,0.921-0.365,1.184c-0.244,0.263-0.559,0.394-0.945,0.394
			c-0.374,0-0.681-0.136-0.922-0.408c-0.24-0.273-0.361-0.662-0.361-1.169v-7.493c0-0.494,0.107-0.863,0.323-1.107
			c0.215-0.243,0.51-0.365,0.883-0.365c0.229,0,0.435,0.054,0.619,0.162c0.183,0.108,0.331,0.269,0.441,0.483
			C328.629,766.086,328.684,766.35,328.684,766.66z"/>
		<path style="fill:#4C4C4C;" d="M344.458,771.134h-5.071c0.007,0.588,0.125,1.107,0.356,1.557c0.231,0.45,0.538,0.789,0.921,1.017
			c0.382,0.229,0.805,0.341,1.267,0.341c0.311,0,0.594-0.035,0.851-0.107c0.255-0.074,0.504-0.187,0.746-0.343
			c0.24-0.154,0.461-0.321,0.665-0.499c0.202-0.178,0.464-0.419,0.788-0.723c0.133-0.113,0.323-0.171,0.57-0.171
			c0.266,0,0.482,0.074,0.646,0.22c0.165,0.146,0.247,0.351,0.247,0.617c0,0.234-0.091,0.507-0.275,0.821
			c-0.184,0.314-0.461,0.614-0.831,0.902c-0.371,0.288-0.835,0.526-1.396,0.717c-0.561,0.19-1.205,0.285-1.933,0.285
			c-1.665,0-2.96-0.476-3.885-1.425c-0.923-0.949-1.386-2.238-1.386-3.865c0-0.767,0.114-1.478,0.342-2.132
			c0.228-0.656,0.561-1.218,0.998-1.686c0.436-0.469,0.975-0.827,1.614-1.078c0.639-0.25,1.349-0.374,2.128-0.374
			c1.013,0,1.881,0.212,2.606,0.641c0.726,0.427,1.269,0.979,1.63,1.656c0.36,0.678,0.542,1.369,0.542,2.07
			c0,0.653-0.186,1.075-0.56,1.269C345.662,771.037,345.136,771.134,344.458,771.134z M339.387,769.662h4.701
			c-0.063-0.887-0.302-1.551-0.717-1.99c-0.415-0.44-0.961-0.66-1.638-0.66c-0.646,0-1.177,0.223-1.592,0.669
			C339.726,768.127,339.476,768.788,339.387,769.662z"/>
		<path style="fill:#4C4C4C;" d="M355.028,774.287v-0.257c-0.348,0.398-0.691,0.724-1.03,0.973c-0.339,0.251-0.706,0.441-1.102,0.57
			c-0.395,0.132-0.828,0.195-1.296,0.195c-0.622,0-1.196-0.131-1.724-0.394c-0.529-0.263-0.986-0.639-1.373-1.126
			c-0.387-0.487-0.679-1.06-0.878-1.719c-0.2-0.659-0.299-1.371-0.299-2.137c0-1.621,0.395-2.886,1.187-3.791
			c0.792-0.904,1.833-1.357,3.125-1.357c0.747,0,1.378,0.129,1.89,0.384c0.513,0.257,1.013,0.652,1.5,1.183v-3.827
			c0-0.532,0.106-0.934,0.319-1.206c0.211-0.273,0.515-0.408,0.907-0.408c0.392,0,0.694,0.125,0.907,0.375
			c0.212,0.251,0.318,0.618,0.318,1.106v11.436c0,0.494-0.114,0.864-0.342,1.111c-0.228,0.246-0.522,0.37-0.883,0.37
			c-0.354,0-0.647-0.128-0.879-0.384C355.144,775.127,355.028,774.761,355.028,774.287z M349.928,770.478
			c0,0.703,0.108,1.301,0.327,1.795c0.218,0.494,0.518,0.866,0.898,1.115c0.379,0.251,0.794,0.377,1.243,0.377
			c0.457,0,0.873-0.119,1.249-0.357c0.377-0.236,0.678-0.602,0.902-1.091c0.225-0.491,0.337-1.105,0.337-1.839
			c0-0.69-0.112-1.284-0.337-1.782c-0.224-0.496-0.528-0.876-0.912-1.14c-0.384-0.262-0.803-0.393-1.259-0.393
			c-0.474,0-0.899,0.135-1.272,0.403c-0.373,0.269-0.663,0.654-0.869,1.158C350.03,769.229,349.928,769.813,349.928,770.478z"/>
		<path style="fill:#4C4C4C;" d="M365.626,762.851v3.96c0.487-0.506,0.984-0.895,1.491-1.163c0.506-0.269,1.134-0.403,1.881-0.403
			c0.861,0,1.616,0.204,2.266,0.611c0.648,0.41,1.151,1.002,1.51,1.777c0.357,0.774,0.537,1.695,0.537,2.76
			c0,0.785-0.1,1.504-0.299,2.16c-0.2,0.655-0.49,1.224-0.869,1.704c-0.38,0.481-0.841,0.854-1.382,1.117
			c-0.542,0.263-1.139,0.394-1.79,0.394c-0.4,0-0.775-0.047-1.126-0.143c-0.352-0.095-0.651-0.219-0.898-0.375
			c-0.246-0.154-0.457-0.314-0.631-0.479c-0.174-0.164-0.404-0.412-0.689-0.741v0.257c0,0.487-0.117,0.856-0.352,1.107
			c-0.233,0.25-0.531,0.374-0.893,0.374c-0.367,0-0.66-0.124-0.878-0.374c-0.219-0.251-0.328-0.62-0.328-1.107v-11.322
			c0-0.525,0.106-0.923,0.317-1.191c0.212-0.269,0.509-0.403,0.889-0.403c0.399,0,0.706,0.128,0.921,0.384
			C365.518,762.011,365.626,762.375,365.626,762.851z M365.75,770.554c0,1.032,0.236,1.824,0.708,2.378
			c0.472,0.555,1.091,0.833,1.857,0.833c0.652,0,1.214-0.283,1.686-0.851c0.472-0.567,0.708-1.379,0.708-2.437
			c0-0.684-0.097-1.273-0.294-1.767c-0.197-0.494-0.475-0.876-0.835-1.145c-0.361-0.268-0.783-0.403-1.264-0.403
			c-0.494,0-0.935,0.135-1.32,0.403c-0.386,0.269-0.69,0.658-0.912,1.168C365.861,769.244,365.75,769.851,365.75,770.554z"/>
		<path style="fill:#4C4C4C;" d="M376.672,776.091l0.237-0.58l-3.191-8.035c-0.196-0.461-0.295-0.798-0.295-1.007
			c0-0.222,0.058-0.427,0.171-0.616c0.114-0.19,0.271-0.343,0.47-0.456c0.2-0.115,0.407-0.172,0.623-0.172
			c0.373,0,0.655,0.119,0.846,0.357c0.19,0.237,0.357,0.577,0.503,1.021l2.194,6.383l2.08-5.937c0.164-0.479,0.313-0.857,0.446-1.13
			c0.133-0.273,0.273-0.456,0.422-0.55c0.148-0.096,0.359-0.144,0.632-0.144c0.197,0,0.385,0.052,0.565,0.157
			c0.18,0.104,0.319,0.245,0.417,0.423c0.098,0.177,0.148,0.363,0.148,0.56c-0.026,0.12-0.066,0.291-0.124,0.514
			c-0.058,0.221-0.126,0.447-0.208,0.674l-3.381,8.852c-0.292,0.778-0.577,1.389-0.855,1.832c-0.279,0.443-0.647,0.785-1.106,1.021
			c-0.46,0.238-1.078,0.357-1.857,0.357c-0.759,0-1.33-0.082-1.708-0.246c-0.381-0.166-0.57-0.467-0.57-0.903
			c0-0.297,0.089-0.527,0.271-0.688c0.18-0.161,0.448-0.243,0.801-0.243c0.14,0,0.276,0.02,0.409,0.059
			c0.164,0.037,0.307,0.057,0.427,0.057c0.297,0,0.532-0.044,0.704-0.134c0.17-0.088,0.324-0.241,0.46-0.461
			C376.337,776.837,376.495,776.515,376.672,776.091z"/>
	</g>
	<g>
		<path style="fill:#4C4C4C;" d="M414.235,765.45h0.618v-0.778c0-0.814,0.1-1.457,0.307-1.938c0.204-0.479,0.556-0.826,1.047-1.045
			c0.49-0.217,1.163-0.326,2.017-0.326c1.52,0,2.273,0.367,2.273,1.114c0,0.238-0.079,0.444-0.24,0.615
			c-0.154,0.169-0.343,0.256-0.558,0.256c-0.1,0-0.278-0.019-0.527-0.06c-0.237-0.033-0.452-0.056-0.623-0.056
			c-0.468,0-0.767,0.141-0.905,0.415c-0.127,0.275-0.195,0.669-0.195,1.185v0.617h0.633c0.991,0,1.481,0.297,1.481,0.895
			c0,0.419-0.127,0.69-0.393,0.805c-0.262,0.114-0.624,0.171-1.089,0.171h-0.633v6.871c0,0.511-0.12,0.9-0.369,1.168
			c-0.241,0.272-0.554,0.406-0.942,0.406c-0.367,0-0.671-0.134-0.918-0.406c-0.244-0.268-0.364-0.657-0.364-1.168v-6.871h-0.714
			c-0.389,0-0.683-0.084-0.893-0.262c-0.209-0.171-0.315-0.399-0.315-0.678C412.931,765.757,413.366,765.45,414.235,765.45"/>
		<path style="fill:#4C4C4C;" d="M422.724,772.024v2.168c0,0.523-0.133,0.919-0.374,1.18c-0.247,0.266-0.559,0.395-0.938,0.395
			c-0.382,0-0.688-0.131-0.927-0.4c-0.236-0.264-0.36-0.656-0.36-1.174v-7.223c0-1.166,0.42-1.749,1.261-1.749
			c0.434,0,0.743,0.135,0.934,0.408c0.19,0.273,0.295,0.674,0.317,1.208c0.308-0.534,0.624-0.935,0.948-1.208
			c0.332-0.273,0.763-0.408,1.31-0.408c0.549,0,1.072,0.135,1.585,0.408c0.516,0.273,0.771,0.637,0.771,1.085
			c0,0.315-0.11,0.58-0.326,0.781c-0.22,0.209-0.454,0.312-0.706,0.312c-0.1,0-0.331-0.063-0.692-0.18
			c-0.365-0.113-0.688-0.173-0.963-0.173c-0.38,0-0.692,0.103-0.932,0.298c-0.242,0.205-0.431,0.497-0.564,0.887
			c-0.129,0.395-0.219,0.865-0.272,1.404C422.747,770.584,422.724,771.246,422.724,772.024"/>
		<path style="fill:#4C4C4C;" d="M434.645,771.131h-5.074c0.009,0.588,0.124,1.11,0.354,1.559c0.235,0.446,0.54,0.786,0.925,1.017
			c0.385,0.227,0.804,0.34,1.268,0.34c0.311,0,0.593-0.033,0.85-0.111c0.254-0.069,0.505-0.186,0.745-0.341
			c0.242-0.152,0.46-0.318,0.664-0.5c0.202-0.175,0.467-0.416,0.79-0.719c0.135-0.113,0.324-0.174,0.568-0.174
			c0.269,0,0.481,0.074,0.649,0.222c0.166,0.147,0.243,0.351,0.243,0.617c0,0.235-0.089,0.508-0.268,0.819
			c-0.188,0.317-0.463,0.616-0.836,0.906c-0.374,0.285-0.839,0.527-1.398,0.714c-0.559,0.19-1.206,0.286-1.932,0.286
			c-1.671,0-2.964-0.473-3.887-1.422c-0.924-0.952-1.392-2.242-1.392-3.868c0-0.767,0.117-1.478,0.348-2.135
			c0.225-0.658,0.558-1.216,0.999-1.688c0.436-0.471,0.97-0.828,1.612-1.078c0.638-0.249,1.347-0.374,2.128-0.374
			c1.011,0,1.881,0.214,2.606,0.646c0.724,0.423,1.273,0.977,1.629,1.654c0.361,0.681,0.542,1.368,0.542,2.074
			c0,0.648-0.189,1.07-0.562,1.266C435.847,771.035,435.323,771.131,434.645,771.131 M429.571,769.657h4.701
			c-0.063-0.885-0.298-1.55-0.714-1.986c-0.418-0.442-0.959-0.66-1.641-0.66c-0.645,0-1.177,0.22-1.592,0.669
			C429.912,768.125,429.658,768.784,429.571,769.657"/>
		<path style="fill:#4C4C4C;" d="M445.432,771.131h-5.073c0.006,0.588,0.125,1.11,0.355,1.559c0.231,0.446,0.539,0.786,0.921,1.017
			c0.383,0.227,0.806,0.34,1.271,0.34c0.308,0,0.593-0.033,0.845-0.111c0.259-0.069,0.506-0.186,0.75-0.341
			c0.242-0.152,0.46-0.318,0.664-0.5c0.199-0.175,0.464-0.416,0.788-0.719c0.135-0.113,0.326-0.174,0.568-0.174
			c0.268,0,0.483,0.074,0.65,0.222c0.165,0.147,0.24,0.351,0.24,0.617c0,0.235-0.087,0.508-0.273,0.819
			c-0.177,0.317-0.455,0.616-0.83,0.906c-0.37,0.285-0.84,0.527-1.396,0.714c-0.558,0.19-1.208,0.286-1.935,0.286
			c-1.667,0-2.959-0.473-3.887-1.422c-0.924-0.952-1.389-2.242-1.389-3.868c0-0.767,0.116-1.478,0.348-2.135
			c0.227-0.658,0.559-1.216,0.996-1.688c0.436-0.471,0.973-0.828,1.614-1.078c0.638-0.249,1.351-0.374,2.129-0.374
			c1.009,0,1.878,0.214,2.613,0.646c0.72,0.423,1.266,0.977,1.621,1.654c0.359,0.681,0.545,1.368,0.545,2.074
			c0,0.648-0.191,1.07-0.561,1.266C446.632,771.035,446.108,771.131,445.432,771.131 M440.359,769.657h4.701
			c-0.063-0.885-0.304-1.55-0.715-1.986c-0.421-0.442-0.962-0.66-1.643-0.66c-0.646,0-1.176,0.22-1.593,0.669
			C440.697,768.125,440.443,768.784,440.359,769.657"/>
		<path style="fill:#4C4C4C;" d="M451.112,766.679v0.311c0.486-0.601,0.994-1.042,1.524-1.324c0.519-0.284,1.118-0.427,1.782-0.427
			c0.795,0,1.535,0.208,2.207,0.617c0.671,0.414,1.198,1.016,1.589,1.807c0.39,0.795,0.586,1.729,0.586,2.813
			c0,0.796-0.112,1.531-0.336,2.201c-0.224,0.668-0.537,1.227-0.929,1.68c-0.394,0.45-0.855,0.802-1.39,1.046
			c-0.542,0.241-1.111,0.363-1.728,0.363c-0.738,0-1.364-0.148-1.865-0.447c-0.503-0.292-0.982-0.733-1.441-1.306v3.893
			c0,1.136-0.416,1.71-1.244,1.71c-0.49,0-0.809-0.146-0.972-0.44c-0.151-0.299-0.233-0.724-0.233-1.291v-11.193
			c0-0.495,0.106-0.859,0.32-1.107c0.215-0.239,0.512-0.364,0.885-0.364c0.369,0,0.666,0.125,0.895,0.374
			C450.999,765.848,451.112,766.205,451.112,766.679 M456.196,770.447c0-0.684-0.107-1.273-0.315-1.763
			c-0.209-0.492-0.499-0.867-0.866-1.128c-0.367-0.263-0.782-0.396-1.232-0.396c-0.714,0-1.318,0.284-1.809,0.844
			c-0.492,0.566-0.739,1.396-0.739,2.493c0,1.026,0.244,1.833,0.735,2.406c0.487,0.573,1.086,0.858,1.813,0.858
			c0.429,0,0.83-0.126,1.197-0.372c0.371-0.253,0.665-0.627,0.884-1.127C456.085,771.76,456.196,771.155,456.196,770.447"/>
		<path style="fill:#4C4C4C;" d="M461.412,764.013c-0.362,0-0.669-0.114-0.923-0.335c-0.26-0.223-0.388-0.532-0.388-0.937
			c0-0.368,0.131-0.67,0.396-0.91c0.262-0.234,0.566-0.356,0.914-0.356c0.34,0,0.636,0.107,0.894,0.319
			c0.26,0.219,0.391,0.534,0.391,0.946c0,0.399-0.127,0.711-0.378,0.936C462.064,763.899,461.763,764.013,461.412,764.013
			 M462.696,766.692v7.502c0,0.516-0.124,0.908-0.37,1.172c-0.25,0.27-0.561,0.4-0.941,0.4c-0.381,0-0.685-0.134-0.928-0.406
			c-0.233-0.276-0.355-0.665-0.355-1.166v-7.428c0-0.51,0.122-0.895,0.355-1.154c0.243-0.265,0.547-0.392,0.928-0.392
			c0.381,0,0.691,0.127,0.941,0.392C462.572,765.872,462.696,766.234,462.696,766.692"/>
		<path style="fill:#4C4C4C;" d="M471.055,774.583l-2.284-3.766l-1.408,1.328v2.065c0,0.499-0.133,0.882-0.396,1.149
			c-0.257,0.272-0.566,0.406-0.906,0.406c-0.398,0-0.715-0.131-0.94-0.4c-0.227-0.264-0.344-0.656-0.344-1.174v-11.063
			c0-0.573,0.114-1.011,0.331-1.313c0.223-0.305,0.545-0.452,0.953-0.452c0.4,0,0.713,0.137,0.949,0.411
			c0.234,0.271,0.353,0.674,0.353,1.202v6.293l2.916-3.063c0.362-0.376,0.633-0.641,0.827-0.778
			c0.189-0.139,0.419-0.208,0.689-0.208c0.326,0,0.594,0.104,0.815,0.309c0.211,0.206,0.32,0.466,0.32,0.773
			c0,0.379-0.353,0.889-1.055,1.521l-1.377,1.263l2.659,4.183c0.193,0.313,0.339,0.544,0.424,0.706
			c0.084,0.159,0.13,0.319,0.13,0.462c0,0.413-0.114,0.734-0.341,0.976c-0.225,0.236-0.524,0.354-0.886,0.354
			c-0.316,0-0.564-0.081-0.733-0.256C471.582,775.337,471.345,775.027,471.055,774.583"/>
		<path style="fill:#4C4C4C;" d="M476.691,775.766c-0.392,0-0.728-0.126-1.014-0.381c-0.284-0.249-0.429-0.606-0.429-1.065
			c0-0.386,0.138-0.719,0.41-0.995c0.274-0.279,0.607-0.419,1.008-0.419c0.397,0,0.735,0.14,1.022,0.412
			c0.279,0.275,0.422,0.612,0.422,1.002c0,0.452-0.143,0.808-0.422,1.06C477.402,775.64,477.07,775.766,476.691,775.766"/>
		<path style="fill:#4C4C4C;" d="M489.589,772.556c0,0.32-0.097,0.668-0.291,1.034c-0.191,0.37-0.488,0.718-0.886,1.05
			c-0.395,0.332-0.892,0.602-1.495,0.804c-0.601,0.202-1.28,0.307-2.03,0.307c-1.607,0-2.858-0.47-3.758-1.401
			c-0.896-0.936-1.346-2.189-1.346-3.76c0-1.067,0.204-2.006,0.619-2.824c0.407-0.815,1.004-1.447,1.781-1.894
			c0.779-0.448,1.716-0.67,2.794-0.67c0.674,0,1.288,0.098,1.853,0.295c0.561,0.195,1.032,0.451,1.425,0.759
			c0.387,0.315,0.685,0.644,0.89,0.992c0.207,0.352,0.308,0.681,0.308,0.987c0,0.308-0.113,0.571-0.343,0.787
			c-0.235,0.215-0.516,0.324-0.839,0.324c-0.219,0-0.397-0.057-0.541-0.166c-0.144-0.112-0.305-0.29-0.479-0.542
			c-0.317-0.478-0.646-0.842-0.996-1.079c-0.343-0.243-0.78-0.362-1.314-0.362c-0.762,0-1.384,0.298-1.854,0.898
			c-0.468,0.596-0.703,1.42-0.703,2.454c0,0.488,0.063,0.939,0.183,1.348c0.117,0.407,0.291,0.756,0.52,1.044
			c0.23,0.287,0.504,0.505,0.826,0.654c0.324,0.153,0.681,0.226,1.064,0.226c0.521,0,0.967-0.12,1.337-0.36
			c0.376-0.241,0.702-0.607,0.986-1.102c0.158-0.291,0.327-0.518,0.509-0.684c0.183-0.163,0.409-0.249,0.676-0.249
			c0.316,0,0.58,0.123,0.786,0.362C489.483,772.027,489.589,772.286,489.589,772.556"/>
		<path style="fill:#4C4C4C;" d="M500.78,770.496c0,0.769-0.122,1.484-0.355,2.139c-0.247,0.652-0.592,1.213-1.05,1.679
			c-0.455,0.469-1.002,0.828-1.632,1.08c-0.64,0.247-1.35,0.375-2.139,0.375c-0.785,0-1.493-0.128-2.121-0.383
			c-0.623-0.249-1.171-0.614-1.626-1.082c-0.461-0.477-0.809-1.034-1.052-1.677c-0.23-0.644-0.351-1.355-0.351-2.131
			c0-0.786,0.124-1.506,0.358-2.158c0.242-0.654,0.589-1.212,1.039-1.673c0.451-0.462,0.993-0.817,1.631-1.07
			c0.644-0.249,1.35-0.374,2.121-0.374c0.784,0,1.498,0.125,2.139,0.382c0.638,0.251,1.183,0.614,1.643,1.079
			c0.458,0.475,0.803,1.029,1.04,1.672C500.66,769.004,500.78,769.713,500.78,770.496 M498.176,770.496
			c0-1.059-0.234-1.881-0.698-2.469c-0.463-0.596-1.09-0.888-1.874-0.888c-0.508,0-0.955,0.132-1.343,0.394
			c-0.387,0.262-0.681,0.649-0.89,1.164c-0.209,0.514-0.316,1.113-0.316,1.799c0,0.679,0.103,1.267,0.31,1.773
			c0.208,0.511,0.502,0.897,0.886,1.166c0.386,0.267,0.835,0.404,1.353,0.404c0.784,0,1.411-0.296,1.874-0.892
			C497.942,772.357,498.176,771.537,498.176,770.496"/>
		<path style="fill:#4C4C4C;" d="M510.671,770.686v3.446c0,0.547-0.12,0.951-0.369,1.228c-0.25,0.272-0.571,0.408-0.977,0.408
			c-0.393,0-0.714-0.136-0.951-0.408c-0.247-0.276-0.372-0.681-0.372-1.228v-4.131c0-0.653-0.021-1.162-0.063-1.524
			c-0.046-0.354-0.168-0.655-0.362-0.883c-0.196-0.235-0.509-0.352-0.931-0.352c-0.851,0-1.407,0.29-1.677,0.881
			c-0.268,0.576-0.406,1.413-0.406,2.507v3.502c0,0.538-0.122,0.946-0.361,1.224c-0.249,0.273-0.567,0.412-0.965,0.412
			c-0.395,0-0.717-0.139-0.967-0.412c-0.252-0.277-0.376-0.686-0.376-1.224v-7.419c0-0.489,0.111-0.86,0.335-1.111
			c0.229-0.257,0.526-0.382,0.89-0.382c0.356,0,0.651,0.123,0.892,0.355c0.236,0.238,0.354,0.566,0.354,0.984v0.245
			c0.453-0.535,0.935-0.932,1.444-1.181c0.517-0.26,1.082-0.386,1.713-0.386c0.651,0,1.211,0.131,1.678,0.39
			c0.47,0.261,0.853,0.655,1.16,1.177c0.439-0.528,0.909-0.923,1.41-1.181c0.5-0.257,1.053-0.386,1.662-0.386
			c0.706,0,1.321,0.143,1.834,0.419c0.51,0.278,0.893,0.68,1.148,1.195c0.221,0.473,0.33,1.21,0.33,2.217v5.063
			c0,0.547-0.122,0.951-0.367,1.228c-0.246,0.272-0.575,0.408-0.979,0.408c-0.395,0-0.714-0.139-0.965-0.412
			c-0.25-0.277-0.376-0.686-0.376-1.224v-4.361c0-0.559-0.023-1.003-0.069-1.338c-0.047-0.337-0.177-0.62-0.383-0.847
			c-0.212-0.228-0.53-0.344-0.953-0.344c-0.342,0-0.666,0.107-0.974,0.308c-0.307,0.198-0.547,0.477-0.721,0.813
			C510.77,768.801,510.671,769.576,510.671,770.686"/>
	</g>
	<g>
		<path style="fill:#4C4C4C;" d="M389.967,769.868c-0.002-0.005-0.002-0.01-0.002-0.018
			C389.965,769.858,389.965,769.863,389.967,769.868z"/>
		<path style="fill:#4C4C4C;" d="M390.098,770.697c0.002,0,0.002,0,0.003,0c-0.05-0.236-0.088-0.471-0.119-0.702
			C390.012,770.228,390.051,770.463,390.098,770.697z"/>
		<path style="fill:#4C4C4C;" d="M390.956,773.103c-0.006-0.01-0.011-0.021-0.017-0.033
			C390.945,773.082,390.95,773.093,390.956,773.103z"/>
		<path style="fill:#4C4C4C;" d="M390.874,772.943c-0.022-0.044-0.044-0.09-0.065-0.134
			C390.83,772.856,390.852,772.899,390.874,772.943z"/>
		<path style="fill:#4C4C4C;" d="M390.339,771.624c0.127,0.4,0.28,0.788,0.457,1.158c-0.18-0.378-0.33-0.767-0.454-1.158
			C390.341,771.624,390.34,771.624,390.339,771.624z"/>
		<path style="fill:#4C4C4C;" d="M400.004,759.931c0.501,0,0.871,0.04,1.295,0.111l0.12-0.763c0,0-1.171-0.36-2.71-0.234
			l-0.121-0.415c0.479-0.101,0.838-0.526,0.838-1.034c0-0.582-0.474-1.054-1.057-1.054c-0.583,0-1.056,0.472-1.056,1.054
			c0,0.508,0.358,0.934,0.836,1.034l0.134,0.463c-1.634,0.225-2.935,0.862-2.935,0.862l0.23,0.705
			c0.989-0.329,1.846-0.529,2.624-0.613C398.964,759.966,399.537,759.931,400.004,759.931z"/>
		<path style="fill:#4C4C4C;" d="M390.936,763.79l0.006-0.008c0.039-0.05,0.076-0.097,0.113-0.143l-0.313-0.226l-0.488-0.356
			c-0.027,0.038-0.795,0.744-1.401,2.048c-0.025-0.041-0.056-0.081-0.09-0.119c-0.182-0.198-0.436-0.3-0.758-0.294
			c-0.004,0-0.009,0-0.015,0c-0.2,0-0.337-0.066-0.427-0.147c0.089-0.113,0.143-0.256,0.143-0.413c0-0.368-0.3-0.669-0.669-0.669
			c-0.369,0-0.668,0.301-0.668,0.669c0,0.37,0.3,0.669,0.668,0.669c0.058,0,0.113-0.01,0.167-0.021
			c0.165,0.183,0.425,0.342,0.808,0.334c0.197-0.002,0.341,0.049,0.438,0.155c0.111,0.121,0.148,0.296,0.16,0.428
			c-0.001,0.002-0.001,0.005-0.003,0.005c-0.435,1.189-0.311,2.67-0.311,2.67l1.057,0.042c0.021-0.539,0.099-1.482,0.372-2.23
			C390.25,764.734,390.91,763.828,390.936,763.79z"/>
		<path style="fill:#4C4C4C;" d="M409.204,760.815c-0.368,0-0.669,0.299-0.669,0.669c0,0.058,0.009,0.112,0.023,0.165
			c-0.184,0.166-0.343,0.428-0.337,0.81c0.003,0.197-0.048,0.34-0.154,0.437c-0.085,0.075-0.191,0.115-0.296,0.141
			c-0.787-1.103-1.756-1.775-1.756-1.775l-0.759,0.814c0.573,0.521,1.159,1.175,1.729,1.99c0.394,0.563,0.799,1.29,1.136,2.015
			l1.024-0.486c0,0-0.468-1.155-1.126-2.191c0.114-0.04,0.23-0.103,0.331-0.192c0.2-0.181,0.299-0.436,0.293-0.758
			c-0.002-0.208,0.066-0.349,0.148-0.441c0.114,0.087,0.257,0.143,0.412,0.143c0.371,0,0.67-0.3,0.67-0.669
			C409.874,761.114,409.575,760.815,409.204,760.815z"/>
		<path style="fill:#4C4C4C;" d="M406.546,770.017c-1.409,0.687-3.728,1.594-6.781,2.02c-1.198,0.166-2.359,0.228-3.428,0.228
			c-1.391,0-2.62-0.104-3.563-0.223c-1.076-0.136-1.917-0.302-2.432-0.418c0.124,0.392,0.273,0.78,0.454,1.158
			c0.003,0.01,0.008,0.021,0.013,0.027c0.022,0.044,0.043,0.09,0.065,0.134c0.022,0.044,0.043,0.087,0.065,0.127
			c0.006,0.012,0.011,0.023,0.017,0.033c0.303,0.57,0.667,1.095,1.081,1.549c1.44,1.575,2.907,1.824,2.921,1.826l0.023,0.003
			l0.021,0.008c0.013,0.005,1.314,0.425,3.292,0.425c1.945,0,3.854-0.393,5.674-1.167c1.348-0.689,2.622-1.736,3.254-2.67
			c0.488-0.723,0.841-1.493,1.05-2.294c0.111-0.426,0.199-1.107,0.147-1.825C408.022,769.224,407.395,769.604,406.546,770.017z"/>
		<path style="fill:#4C4C4C;" d="M391.389,764.124c-0.041,0.06-0.652,0.925-1.135,2.253c-0.362,0.995-0.346,2.443-0.346,2.46v0.003
			c0,0.34,0.019,0.677,0.057,1.011c0,0.008,0,0.013,0.002,0.018c0.004,0.043,0.011,0.084,0.015,0.127
			c0.03,0.231,0.069,0.466,0.119,0.702c0.7,0.178,4.878,1.152,9.548,0.502c2.927-0.407,5.149-1.273,6.499-1.927
			c1.121-0.544,1.842-1.036,2.12-1.238c-0.277-1.028-1.042-2.641-1.743-3.646c-2.005-2.865-4.167-3.601-5.277-3.783
			c-0.424-0.069-0.763-0.109-1.243-0.109c-0.447,0-1.002,0.036-1.743,0.114c-0.743,0.077-1.572,0.273-2.532,0.596
			c-1.348,0.451-2.567,1.159-3.527,2.048l-0.033,0.03C392.027,763.414,391.73,763.689,391.389,764.124z M403.659,763.457
			c0.961,0,1.743,0.781,1.743,1.743c0,0.962-0.782,1.744-1.743,1.744c-0.962,0-1.742-0.782-1.742-1.744
			C401.917,764.238,402.697,763.457,403.659,763.457z M395.417,763.387c1.557,0,2.817,1.262,2.817,2.817
			c0,1.556-1.26,2.815-2.817,2.815c-1.555,0-2.816-1.259-2.816-2.815C392.601,764.649,393.862,763.387,395.417,763.387z"/>
	</g>
</g>
<g id="objects">
	<g>
		<g>
			<g>
				<path id="SVGID_x5F_1_x5F_" style="fill:none;" d="M172.501,332.5c4.676,1.664,12.565,22.264,15.5,28.99
					c5.681,13.018,10.975,25.547,18.249,38.204c8.492,14.776,15.481,27.455,30.47,36.559c16.33,9.919,35.853,13.495,53.778,20
					c17.563,6.374,48.479,15.163,58.004,33.247"/>
				<text>				<textPath  xlink:href="#SVGID_x5F_1_x5F_" startOffset="15.1954%">
<tspan  style="font-family:'GoodDog'; font-size:48px;">friendship</tspan>				</textPath>
</text>
				<path id="SVGID_x5F_00000167370201513687357820000010252036442193448616_x5F_" style="fill:none;" d="M143.167,519.833
					c19.31,13.324,41.289,17.365,62.199,6.246c17.974-9.558,39.812-27.127,60.801-25.246"/>
				<text>				<textPath  xlink:href="#SVGID_x5F_00000167370201513687357820000010252036442193448616_x5F_" startOffset="0%">
<tspan  style="font-family:'GoodDog'; font-size:48px;">friend </tspan>				</textPath>
</text>
				<path id="SVGID_x5F_00000059281676945429984720000008972032646590212521_x5F_" style="fill:none;" d="M125.72,346.589
					c-17.067,20.905-18.785,43.367-14.827,68.62c3.157,20.146,14.331,43.822,32.712,69.637"/>
				<text>				<textPath  xlink:href="#SVGID_x5F_00000059281676945429984720000008972032646590212521_x5F_" startOffset="1.3875%">
<tspan  style="font-family:'GoodDog'; font-size:42.7688px;">BROTHER</tspan>				</textPath>
</text>
				<path id="SVGID_x5F_00000012460378369600486170000010159629114868700346_x5F_" style="fill:none;" d="M228.273,524.694
					c-0.235,17.199,35.944,43.853,48.766,48.364c11.526,4.055,51.797,17.6,71.621,11.089"/>
				<text>				<textPath  xlink:href="#SVGID_x5F_00000012460378369600486170000010159629114868700346_x5F_" startOffset="11.938%">
<tspan  style="font-family:'GoodDog'; font-size:36.7647px;">PARTNER</tspan>				</textPath>
</text>
				<path id="SVGID_x5F_00000086685961023716270600000001497936657954546343_x5F_" style="fill:none;" d="M283.906,331.271
					c-5.078,19.133,25.976,29.92,37.846,36.648c17.291,9.8,36.278,20.442,46.589,37.742c5.999,10.066,9.048,22.737,10.385,34.417"/>
				<text>				<textPath  xlink:href="#SVGID_x5F_00000086685961023716270600000001497936657954546343_x5F_" startOffset="0%">
<tspan  style="font-family:'GoodDog'; font-size:33.0723px;">COLLEAGE</tspan>				</textPath>
</text>
				<path id="SVGID_x5F_00000010309137975113757860000012462587596630819213_x5F_" style="fill:none;" d="M169.172,301.5
					c-1.87-49.605,80.775-90.156,120.459-66.021"/>
				<text>				<textPath  xlink:href="#SVGID_x5F_00000010309137975113757860000012462587596630819213_x5F_" startOffset="5.142%">
<tspan  style="font-family:'GoodDog'; font-size:45px;">FRIENDSHIP</tspan>				</textPath>
</text>
				<path id="SVGID_x5F_00000069360495585454992000000015201816212229832871_x5F_" style="fill:none;" d="M162.1,320.976
					c29.848,0.612,54.18-12.142,85.359-11.792c14.915,0.168,69.111,16.278,78.897,23.446c8.993,6.588,18.411,19.414,29.261,21.532"
					/>
				<text>				<textPath  xlink:href="#SVGID_x5F_00000069360495585454992000000015201816212229832871_x5F_" startOffset="5.7293%">
<tspan  style="font-family:'GoodDog'; font-size:34.4017px;">COMRADESHIP</tspan>				</textPath>
</text>
				<path id="SVGID_x5F_00000018934693244830566380000012221110231531321770_x5F_" style="fill:none;" d="M276.683,167.993
					c58.87-6.493,57.328,100.485,109.631,88.604"/>
				<text>				<textPath  xlink:href="#SVGID_x5F_00000018934693244830566380000012221110231531321770_x5F_" startOffset="5.737%">
<tspan  style="font-family:'GoodDog'; font-size:32.2208px;">AMICABILITY</tspan>				</textPath>
</text>
				<path id="SVGID_x5F_00000153675998644567022840000000190097974680269732_x5F_" style="fill:none;" d="M336.834,261.833
					c7.969,17.908,19.81,38.745,37.087,50.891c16.892,11.876,47.24,21.429,65.615,18.718"/>
				<text>				<textPath  xlink:href="#SVGID_x5F_00000153675998644567022840000000190097974680269732_x5F_" startOffset="6.8835%">
<tspan  style="font-family:'GoodDog'; font-size:41.0809px;">LOVER</tspan>				</textPath>
</text>
				<path id="SVGID_x5F_00000005955743326655757340000009676431205436666264_x5F_" style="fill:none;" d="M384.458,125.005
					c38.789-19.108,109.448-10.018,124.917,9.085"/>
				<text>				<textPath  xlink:href="#SVGID_x5F_00000005955743326655757340000009676431205436666264_x5F_" startOffset="0%">
<tspan  style="font-family:'GoodDog'; font-size:30.1538px;">FELLOWSHI</tspan><tspan  style="font-family:'GoodDog'; font-size:37.6923px;">P</tspan>				</textPath>
</text>
				<path id="SVGID_x5F_00000116220370774412206370000002740715263090431153_x5F_" style="fill:none;" d="M421.167,251.5
					c0.166-27.159,9.264-52.755,28.581-72.64c18.996-19.554,40.483-23.602,62.007-37.36"/>
				<text>				<textPath  xlink:href="#SVGID_x5F_00000116220370774412206370000002740715263090431153_x5F_" startOffset="13.8885%">
<tspan  style="font-family:'GoodDog'; font-size:38.8235px;">mate</tspan>				</textPath>
</text>
				<path id="SVGID_x5F_00000159462225246541807530000005519819151409423500_x5F_" style="fill:none;" d="M299.834,129.169
					c46.029-0.627,83.819,31.496,109.166,66.864"/>
				<text>				<textPath  xlink:href="#SVGID_x5F_00000159462225246541807530000005519819151409423500_x5F_" startOffset="0%">
<tspan  style="font-family:'GoodDog'; font-size:33px;">camaraderie</tspan>				</textPath>
</text>
				<path id="SVGID_x5F_00000072998554315305898210000017108385271855831936_x5F_" style="fill:none;" d="M456.501,267.5
					c25.987-13.988,43.174-45.529,47.845-74.13c4.399-26.939,0.879-66.386,35.054-72.536"/>
				<text>				<textPath  xlink:href="#SVGID_x5F_00000072998554315305898210000017108385271855831936_x5F_" startOffset="0%">
<tspan  style="font-family:'GoodDog'; font-size:33.4783px;">BROTHERHOOD</tspan>				</textPath>
</text>
				<path id="SVGID_x5F_00000175323941582663908800000016152400834420335747_x5F_" style="fill:none;" d="M495.167,312.5
					c16.439-10.266,30.404-17.307,42.972-32.584c14.054-17.082,12.506-30.886,19.028-51.416c4.598-14.476,16-25,28-30"/>
				<text>				<textPath  xlink:href="#SVGID_x5F_00000175323941582663908800000016152400834420335747_x5F_" startOffset="5.3743%">
<tspan  style="font-family:'GoodDog'; font-size:46px;">KINDNESS</tspan>				</textPath>
</text>
				<path id="SVGID_x5F_00000137820083217169578570000002928533926302055564_x5F_" style="fill:none;" d="M525.56,108.448
					c54.335,13.245,99.303,63.361,99.148,119.498"/>
				<text>				<textPath  xlink:href="#SVGID_x5F_00000137820083217169578570000002928533926302055564_x5F_" startOffset="7.129%">
<tspan  style="font-family:'GoodDog'; font-size:43px;">companion</tspan>				</textPath>
</text>
				<path id="SVGID_x5F_00000062880707957993191170000005928549654879065238_x5F_" style="fill:none;" d="M447.167,511.477
					c7.721,7.722,25.257,11.854,35.785,14.094c10.808,2.299,22.04,3.617,33.15,4.544c34.061,2.842,65.027-6.924,94.154-25.39
					c13.648-8.652,23.765-19.58,32.244-32.763"/>
				<text>				<textPath  xlink:href="#SVGID_x5F_00000062880707957993191170000005928549654879065238_x5F_" startOffset="5.3808%">
<tspan  style="font-family:'GoodDog'; font-size:44px;">schoolfellow</tspan>				</textPath>
</text>
				<path id="SVGID_x5F_00000174581528032035347420000010177572710390694286_x5F_" style="fill:none;" d="M415.167,577.475
					c11.944,0.796,33.302-1.509,44.593-5.574c19.907-7.167,29.463-17.519,41.407-32.648"/>
				<text>				<textPath  xlink:href="#SVGID_x5F_00000174581528032035347420000010177572710390694286_x5F_" startOffset="14.453%">
<tspan  style="font-family:'GoodDog'; font-size:40.6111px;">LOVE</tspan>				</textPath>
</text>
				<path id="SVGID_x5F_00000008144821899065596260000007550526333641027988_x5F_" style="fill:none;" d="M420.501,475.5
					c17.567-14.454,43.61-11.187,64.725-14.082c23.695-3.248,49.024-2.076,66.725-18.718c22.55-21.2,35.884-28.534,53.884-29.2"/>
				<text>				<textPath  xlink:href="#SVGID_x5F_00000008144821899065596260000007550526333641027988_x5F_" startOffset="11.5887%">
<tspan  style="font-family:'GoodDog'; font-size:40px;">ASSOCIATE</tspan>				</textPath>
</text>
				<path id="SVGID_x5F_00000145021350528923983110000006425574211641048965_x5F_" style="fill:none;" d="M641.834,232.167
					c14.096,12.462,19.1,29.414,16.467,47.665c-3.021,20.935-5.709,68.517,15.089,94.335"/>
				<text>				<textPath  xlink:href="#SVGID_x5F_00000145021350528923983110000006425574211641048965_x5F_" startOffset="0%">
<tspan  style="font-family:'GoodDog'; font-size:38.7273px;">OLD FRIEND</tspan>				</textPath>
</text>
				<path id="SVGID_x5F_00000125595648955737968210000018242918126229111694_x5F_" style="fill:none;" d="M583.913,374.898
					c23.067-11.358,55.483,7.327,72.885,21.515c11.939,9.733,40.698,40.04,57.703,30.72"/>
				<text>				<textPath  xlink:href="#SVGID_x5F_00000125595648955737968210000018242918126229111694_x5F_" startOffset="11.635%">
<tspan  style="font-family:'GoodDog'; font-size:50px;">fellow</tspan>				</textPath>
</text>
				<path id="SVGID_x5F_00000058574653705533996340000004242387685069662396_x5F_" style="fill:none;" d="M498.501,352.833
					c12-0.401,20.599,0.515,32.032-5.085c15.309-7.498,30.46-16.709,44.777-25.949c25.129-16.219,56.382-34.649,86.524-20.417"/>
				<text>				<textPath  xlink:href="#SVGID_x5F_00000058574653705533996340000004242387685069662396_x5F_" startOffset="37.5977%">
<tspan  style="font-family:'GoodDog'; font-size:48px;">sidekick</tspan>				</textPath>
</text>
				<path id="SVGID_x5F_00000007405749121245127110000004774597028820776848_x5F_" style="fill:none;" d="M562.501,266.167
					c11.333,0,35.915-5.698,48.667-12.667c10.027-5.479,24.952-16.19,30.966-24.488"/>
				<text>				<textPath  xlink:href="#SVGID_x5F_00000007405749121245127110000004774597028820776848_x5F_" startOffset="0.0975%">
<tspan  style="font-family:'GoodDog'; font-size:36px;">CHUM</tspan>				</textPath>
</text>
				<path id="SVGID_x5F_00000057831053537782615480000011870277846672570029_x5F_" style="fill:none;" d="M456.881,399.323
					c39.723-6.44,64.191-11.192,95.133-22.267c21.299-7.624,36.951-25.9,42.774-44.125"/>
				<text>				<textPath  xlink:href="#SVGID_x5F_00000057831053537782615480000011870277846672570029_x5F_" startOffset="11.136%">
<tspan  style="font-family:'GoodDog'; font-size:45.9759px;">BUDDY</tspan>				</textPath>
</text>
				<path id="SVGID_x5F_00000095310321017385796250000001670977065489130659_x5F_" style="fill:none;" d="M546.383,492.156
					c26.215,2.064,45.742-21.226,71.169-24.734c25.882-3.571,48.764-2.656,69.865-22.338c10.136-9.454,17.904-23.598,20.116-37.302"
					/>
				<text>				<textPath  xlink:href="#SVGID_x5F_00000095310321017385796250000001670977065489130659_x5F_" startOffset="2.7127%">
<tspan  style="font-family:'GoodDog'; font-size:40.6114px;">COMPEER</tspan>				</textPath>
</text>
				<polygon style="fill:#808080;" points="577.533,231.408 584.583,225.979 591.581,230.133 590.523,220.755 594.678,216.031 
					587.171,214.9 582.544,208.59 579.195,215.201 571.948,218.094 578.662,221.777 				"/>
				<polygon style="fill:#808080;" points="154.018,506.719 147.956,502.984 142.649,506.741 142.8,499.329 139.114,495.935 
					145.055,494.506 148.299,489.234 151.479,494.163 157.51,495.899 152.396,499.268 				"/>
				<polygon style="fill:#808080;" points="343.389,476.872 335.882,473.118 330.043,478.083 329.448,469.365 324.766,465.764 
					331.593,463.466 334.852,456.939 339.1,462.394 346.362,463.804 340.708,468.292 				"/>
				<polygon style="fill:#808080;" points="311.774,233.078 306.244,226.399 297.159,231.616 298.447,221.852 292.775,217.489 
					301.046,214.705 305.928,205.797 310.142,213.406 318.594,214.566 312.091,220.552 				"/>
				<polygon style="fill:#808080;" points="678.023,380.894 684.991,376.653 691.825,384.01 693.427,374.981 699.866,372.832 
					693.083,367.874 691.149,358.519 685.122,363.98 677.049,362.457 681.301,369.715 				"/>
				<polygon style="fill:#808080;" points="169.049,344.459 161.849,339.534 151.16,342.313 156.17,334.304 151.16,324.424 
					159.389,327.286 164.128,319.963 167.058,328.179 175.978,327.314 168.579,335.749 				"/>
				<path style="fill:#DA0000;" d="M382.433,267.632c-1.47-6.386,8.229-8.278,11.361,1.29c2.438,7.449-3.542,9.293-3.321,15.856
					c-4.26-6.187-12.465-3.077-16.403-8.774c-5.114-7.398,3.067-12.147,8.382-8.384L382.433,267.632z"/>
				<path style="fill:#DA0000;" d="M540.092,140.265c-0.384-12.031,18.75-12.219,21.09,6.118
					c1.822,14.275-10.23,15.614-12.284,27.548c-5.758-12.601-22.513-9.714-27.845-21.323c-6.924-15.074,10.403-20.931,19.079-12.359
					L540.092,140.265z"/>
				<path style="fill:#DA0000;" d="M438.713,523.647c0.965-8.605,14.606-6.769,14.385,6.526c-0.172,10.35-8.889,10.063-11.58,18.348
					c-2.802-9.563-15.028-9.233-17.629-18.046c-3.378-11.444,9.56-13.831,14.854-6.835L438.713,523.647z"/>
				<path style="fill:#DA0000;" d="M170.301,395.807c-0.897-8.353-15.799-6.792-15.797,6.094
					c0.002,10.031,9.509,9.892,12.294,17.963c3.226-9.222,16.546-8.707,19.539-17.205c3.887-11.035-10.173-13.553-16.069-6.86
					L170.301,395.807z"/>
				<path style="fill:#DA0000;" d="M312.276,250.563c-1.566-3.544-4.25-5.994-8.121-6.445c-2.239-0.261-8.583,0.593-8.859,5.495
					c-0.292-4.902-6.98-5.756-9.331-5.495c-4.064,0.451-6.882,2.901-8.527,6.445c-4.155,8.953,3.806,19.067,10.397,24.81
					c3.025,2.635,6.007,5.275,7.461,8.714c1.385-3.439,4.197-6.078,7.078-8.714C308.651,269.631,316.234,259.516,312.276,250.563z"
					/>
				<path style="fill:#DA0000;" d="M645.769,210.546c-0.757-1.713-2.055-2.898-3.926-3.116c-1.083-0.126-4.15,0.287-4.283,2.657
					c-0.141-2.37-3.375-2.783-4.511-2.657c-1.965,0.218-3.327,1.403-4.123,3.116c-2.009,4.329,1.84,9.219,5.027,11.995
					c1.462,1.274,2.904,2.55,3.607,4.213c0.669-1.663,2.029-2.939,3.422-4.213C644.017,219.764,647.682,214.874,645.769,210.546z"/>
				<path style="fill:#DA0000;" d="M464.037,154.78c-0.653-1.477-1.772-2.499-3.385-2.687c-0.933-0.109-3.578,0.247-3.693,2.291
					c-0.122-2.043-2.909-2.399-3.889-2.291c-1.694,0.188-2.869,1.209-3.554,2.687c-1.732,3.732,1.587,7.948,4.334,10.342
					c1.261,1.098,2.504,2.199,3.11,3.632c0.577-1.433,1.749-2.534,2.95-3.632C462.526,162.728,465.687,158.512,464.037,154.78z"/>
				<path style="fill:#DA0000;" d="M283.947,509.174c-0.968-2.19-2.627-3.705-5.019-3.984c-1.384-0.161-5.305,0.367-5.475,3.397
					c-0.18-3.03-4.314-3.558-5.767-3.397c-2.512,0.279-4.254,1.793-5.271,3.984c-2.568,5.534,2.353,11.785,6.427,15.335
					c1.869,1.629,3.713,3.26,4.612,5.386c0.856-2.126,2.594-3.757,4.375-5.386C281.706,520.959,286.393,514.707,283.947,509.174z"/>
				<path style="fill:#333333;" d="M247.442,256.723c0,0-0.009,0.517-0.026,1.485c-0.046,0.963-0.194,2.402-0.698,4.156
					c-0.509,1.751-1.442,3.809-2.988,5.858c-1.527,2.057-3.781,4.023-6.66,5.396c-0.705,0.374-1.489,0.611-2.262,0.91
					c-0.803,0.204-1.608,0.486-2.466,0.591c-1.696,0.318-3.493,0.387-5.325,0.137c-3.699-0.502-7.398-2.516-9.862-5.799
					c-2.459-3.246-3.723-7.647-2.785-11.957c0.924-4.302,4.42-7.963,8.725-9.156c2.156-0.584,4.419-0.67,6.62,0.079
					c2.149,0.708,3.986,2.195,5.215,4.042c1.221,1.853,1.788,4.135,1.602,6.264c-0.206,2.278-1.346,4.299-3.026,5.645
					c-1.658,1.346-3.864,1.992-5.862,1.758c-2.163-0.257-3.967-1.523-4.957-3.24c-0.988-1.717-1.208-3.762-0.413-5.532
					c0.776-1.721,2.452-2.861,4.158-3.048c0.421-0.053,0.86-0.055,1.261,0.005c0.459,0.058,0.841,0.193,1.225,0.369
					c0.754,0.357,1.377,0.929,1.781,1.604c0.82,1.33,0.821,3.074-0.051,4.207c-0.841,1.138-2.274,1.575-3.432,1.253
					c-1.182-0.328-1.878-1.418-1.912-2.378c-0.078-0.999,0.573-1.81,1.258-2.07c0.687-0.291,1.381-0.147,1.771,0.167
					c0.4,0.309,0.544,0.688,0.595,0.93c0.049,0.248,0.035,0.378,0.035,0.378s0.005-0.132-0.06-0.372
					c-0.064-0.234-0.232-0.591-0.627-0.856c-0.381-0.271-1.021-0.352-1.625-0.051c-0.594,0.282-1.104,1.005-0.997,1.846
					c0.07,0.829,0.715,1.709,1.688,1.924c0.95,0.219,2.141-0.212,2.757-1.158c0.65-0.919,0.573-2.316-0.133-3.353
					c-0.351-0.515-0.849-0.953-1.445-1.211c-0.29-0.125-0.63-0.228-0.926-0.254c-0.349-0.042-0.684-0.027-1.029,0.025
					c-1.368,0.191-2.669,1.149-3.233,2.511c-0.569,1.303-0.364,3.077,0.479,4.386c0.807,1.351,2.36,2.301,3.917,2.442
					c1.715,0.135,3.432-0.397,4.771-1.511c1.34-1.085,2.225-2.8,2.354-4.501c0.125-1.846-0.369-3.675-1.379-5.222
					c-1.028-1.523-2.553-2.75-4.328-3.321c-0.898-0.291-1.751-0.429-2.748-0.434c-0.951,0.039-1.906,0.13-2.819,0.411
					c-3.68,0.999-6.712,4.125-7.519,7.817c-0.82,3.667,0.185,7.701,2.36,10.613c2.164,2.956,5.458,4.899,8.768,5.45
					c1.672,0.285,3.378,0.274,4.968,0.021c0.809-0.072,1.57-0.318,2.333-0.485c0.734-0.262,1.483-0.46,2.158-0.795
					c2.745-1.234,4.988-2.987,6.559-4.894c1.584-1.9,2.595-3.858,3.176-5.549c0.566-1.7,0.831-3.089,0.933-4.053
					C247.399,257.238,247.442,256.723,247.442,256.723z"/>
				<path style="fill:#333333;" d="M614.816,327.9c0,0,0.145-0.443,0.418-1.275c0.296-0.819,0.807-2.021,1.708-3.4
					c0.905-1.375,2.259-2.903,4.138-4.26c1.865-1.368,4.334-2.465,7.184-2.883c0.708-0.135,1.447-0.131,2.194-0.183
					c0.747,0.038,1.517,0.009,2.285,0.147c1.548,0.177,3.118,0.596,4.631,1.3c3.058,1.418,5.715,4.141,6.967,7.63
					c1.258,3.456,1.177,7.591-0.78,11.061c-1.943,3.467-5.934,5.695-9.967,5.578c-2.016-0.07-3.992-0.598-5.692-1.831
					c-1.666-1.184-2.856-2.956-3.424-4.877c-0.561-1.924-0.442-4.045,0.285-5.833c0.785-1.911,2.306-3.351,4.114-4.066
					c1.789-0.72,3.865-0.69,5.527,0.044c1.798,0.798,3.018,2.37,3.415,4.116c0.396,1.745,0.041,3.568-1.116,4.884
					c-1.128,1.278-2.878,1.816-4.4,1.523c-0.377-0.066-0.756-0.182-1.087-0.34c-0.381-0.172-0.674-0.391-0.959-0.645
					c-0.555-0.509-0.941-1.168-1.11-1.858c-0.354-1.366,0.11-2.871,1.164-3.617c1.028-0.758,2.382-0.754,3.295-0.167
					c0.933,0.598,1.243,1.724,1.017,2.561c-0.199,0.883-0.977,1.409-1.637,1.452c-0.671,0.068-1.231-0.24-1.484-0.616
					c-0.263-0.373-0.287-0.739-0.266-0.961c0.023-0.227,0.07-0.336,0.07-0.336s-0.039,0.113-0.048,0.337
					c-0.007,0.219,0.043,0.572,0.313,0.905c0.256,0.335,0.788,0.576,1.389,0.477c0.588-0.085,1.22-0.574,1.352-1.328
					c0.16-0.734-0.162-1.665-0.945-2.11c-0.762-0.442-1.904-0.387-2.688,0.265c-0.805,0.62-1.111,1.846-0.778,2.929
					c0.166,0.538,0.479,1.048,0.925,1.43c0.217,0.185,0.483,0.364,0.731,0.465c0.29,0.129,0.583,0.206,0.895,0.252
					c1.231,0.2,2.609-0.281,3.459-1.306c0.838-0.973,1.133-2.559,0.754-3.912c-0.336-1.381-1.424-2.614-2.73-3.15
					c-1.444-0.574-3.068-0.571-4.52,0.033c-1.445,0.579-2.666,1.824-3.23,3.258c-0.599,1.559-0.66,3.27-0.2,4.874
					c0.481,1.588,1.471,3.053,2.851,4.018c0.698,0.49,1.396,0.837,2.255,1.106c0.831,0.22,1.68,0.395,2.542,0.396
					c3.441,0.118,6.891-1.773,8.57-4.744c1.684-2.946,1.891-6.695,0.79-9.787c-1.081-3.127-3.406-5.681-6.116-7.038
					c-1.367-0.691-2.842-1.135-4.282-1.341c-0.717-0.153-1.439-0.144-2.143-0.203c-0.703,0.03-1.402,0.002-2.074,0.111
					c-2.698,0.334-5.1,1.25-6.963,2.477c-1.873,1.218-3.267,2.639-4.219,3.943c-0.941,1.316-1.539,2.445-1.884,3.249
					C614.99,327.467,614.816,327.9,614.816,327.9z"/>
				<path style="fill:#333333;" d="M593.033,429.807c0,0-0.407-0.462-1.169-1.328c-0.746-0.873-1.785-2.24-2.849-4.132
					c-1.009-1.916-2.057-4.378-2.6-7.385c-0.529-2.983-0.629-6.564,0.591-10.192c0.542-1.827,1.472-3.619,2.67-5.297
					c0.316-0.408,0.62-0.834,0.957-1.237c0.365-0.38,0.732-0.762,1.102-1.148l0.279-0.29c0.161-0.146,0.216-0.182,0.33-0.278
					l0.601-0.496c0.371-0.342,0.885-0.64,1.358-0.954c3.814-2.41,8.885-2.987,13.523-1.577c4.65,1.381,8.899,4.462,11.664,8.806
					c1.312,2.199,2.24,4.704,2.411,7.333c0.226,2.615-0.287,5.336-1.56,7.71c-0.661,1.174-1.514,2.232-2.496,3.149
					c-0.943,0.861-2.249,1.649-3.507,2.07c-2.58,0.909-5.402,0.737-7.848-0.174c-2.467-0.88-4.606-2.527-6.163-4.491
					c-1.61-2.087-2.466-4.628-2.334-7.192c0.105-2.53,1.385-5.091,3.439-6.463c2.239-1.504,4.919-1.421,7.05-0.531
					c1.076,0.442,2.029,1.099,2.826,1.877c0.198,0.211,0.373,0.377,0.586,0.625c0.16,0.209,0.314,0.371,0.481,0.634
					c0.349,0.485,0.574,0.967,0.792,1.479c0.808,2.03,0.609,4.467-0.761,6.093c-0.326,0.405-0.714,0.758-1.143,1.026
					c-0.474,0.303-0.939,0.476-1.44,0.577c-0.988,0.205-1.987,0.075-2.843-0.275c-1.703-0.695-2.994-2.135-3.307-3.78
					c-0.348-1.621,0.438-3.344,1.814-3.922c1.392-0.561,2.779,0.051,3.545,0.852c0.827,0.81,1.049,1.98,0.723,2.809
					c-0.301,0.853-1.094,1.277-1.691,1.232c-0.603-0.014-1.004-0.277-1.236-0.456c-0.233-0.19-0.326-0.314-0.326-0.314
					s0.102,0.119,0.343,0.29c0.239,0.161,0.651,0.389,1.216,0.363c0.276-0.009,0.59-0.105,0.85-0.3
					c0.266-0.216,0.492-0.517,0.601-0.897c0.231-0.749-0.015-1.753-0.771-2.429c-0.716-0.686-1.954-1.112-3.013-0.61
					c-1.04,0.497-1.631,1.907-1.276,3.215c0.304,1.315,1.463,2.481,2.889,2.982c0.711,0.244,1.501,0.324,2.239,0.143
					c0.363-0.078,0.741-0.245,1.022-0.438c0.332-0.217,0.62-0.498,0.861-0.819c1.012-1.266,1.131-3.193,0.428-4.822
					c-0.182-0.396-0.402-0.823-0.658-1.15c-0.102-0.167-0.3-0.375-0.456-0.565l-0.48-0.479c-0.692-0.636-1.505-1.159-2.398-1.493
					c-0.89-0.337-1.855-0.495-2.803-0.429c-0.933,0.054-1.9,0.422-2.599,0.906c-1.616,1.18-2.572,3.09-2.651,5.161
					c-0.102,2.055,0.664,4.221,1.967,5.874c1.401,1.732,3.244,3.105,5.352,3.836c2.086,0.756,4.432,0.853,6.485,0.101
					c1.053-0.389,1.895-0.88,2.773-1.672c0.807-0.771,1.498-1.654,2.046-2.628c1.072-1.959,1.547-4.258,1.372-6.527
					c-0.121-2.277-0.916-4.491-2.056-6.451c-2.393-3.863-6.312-6.801-10.491-8.063c-4.182-1.284-8.735-0.908-12.165,1.117
					c-0.414,0.261-0.832,0.461-1.243,0.815l-0.615,0.478l-0.269,0.212l-0.264,0.259c-0.352,0.345-0.702,0.687-1.048,1.027
					c-0.321,0.363-0.611,0.749-0.916,1.117c-1.152,1.519-2.074,3.16-2.631,4.86c-1.225,3.373-1.31,6.779-0.945,9.687
					c0.382,2.929,1.286,5.386,2.186,7.318c0.97,1.905,1.87,3.327,2.569,4.248C592.658,429.32,593.033,429.807,593.033,429.807z"/>
				<path style="fill:#333333;" d="M390.049,382.025c0,0,0.295-0.216,0.848-0.622c0.541-0.421,1.28-1.096,2.078-2.08
					c0.801-0.978,1.572-2.335,2.093-4.002c0.514-1.668,0.695-3.665,0.393-5.77c-0.171-1.048-0.451-2.127-0.924-3.168
					c-0.441-1.05-1.058-2.08-1.837-2.993c-1.527-1.803-3.858-3.139-6.413-3.446c-2.527-0.324-5.364,0.478-7.23,2.336
					c-1.89,1.856-2.551,4.841-1.763,7.399c0.362,1.273,1.073,2.528,2.03,3.358c0.975,0.874,2.241,1.395,3.525,1.499
					c1.29,0.078,2.572-0.256,3.626-1.012c0.956-0.686,1.624-1.864,1.752-3.06c0.145-1.211-0.182-2.418-0.878-3.41
					c-0.638-0.879-1.745-1.508-2.837-1.531c-1.076-0.064-2.219,0.444-2.763,1.257c-0.593,0.832-0.654,1.958-0.272,2.845
					c0.096,0.227,0.206,0.431,0.358,0.63c0.119,0.167,0.303,0.337,0.478,0.47c0.364,0.271,0.798,0.424,1.23,0.462
					c0.868,0.075,1.733-0.378,2.026-1.104c0.324-0.715,0.135-1.579-0.331-2.078c-0.471-0.514-1.226-0.616-1.751-0.361
					c-0.543,0.236-0.777,0.814-0.722,1.273c0.048,0.473,0.323,0.83,0.62,0.972c0.633,0.287,1.01-0.044,0.992-0.01
					c0.014-0.039-0.327,0.332-1.025,0.081c-0.331-0.131-0.667-0.497-0.758-1.02c-0.108-0.507,0.12-1.224,0.768-1.549
					c0.607-0.339,1.532-0.277,2.158,0.33c0.613,0.594,0.903,1.609,0.547,2.563c-0.339,0.975-1.435,1.64-2.559,1.597
					c-0.567-0.013-1.142-0.201-1.634-0.539c-0.246-0.177-0.467-0.36-0.672-0.623c-0.181-0.222-0.344-0.492-0.469-0.766
					c-0.519-1.101-0.507-2.549,0.243-3.692c0.771-1.179,2.136-1.799,3.561-1.794c1.431,0.006,2.841,0.689,3.794,1.918
					c0.874,1.131,1.311,2.704,1.143,4.22c-0.165,1.528-0.931,3.011-2.267,3.994c-1.233,0.907-2.862,1.374-4.444,1.282
					c-1.586-0.107-3.146-0.733-4.358-1.792c-1.251-1.089-2.035-2.481-2.497-4.006c-0.899-3.043-0.079-6.563,2.196-8.756
					c2.275-2.195,5.461-3.008,8.341-2.627c2.909,0.365,5.438,1.959,7.081,4.039c0.814,1.027,1.431,2.146,1.868,3.288
					c0.468,1.131,0.729,2.293,0.872,3.413c0.265,2.25-0.055,4.346-0.689,6.05c-0.639,1.706-1.513,3.055-2.386,4.011
					c-0.862,0.966-1.684,1.582-2.249,1.966C390.359,381.831,390.049,382.025,390.049,382.025z"/>
				<path style="fill:#333333;" d="M405.408,155.981c0,0-0.284-0.571-0.818-1.641c-0.499-1.081-1.155-2.739-1.606-4.944
					c-0.443-2.204-0.596-4.987-0.076-8.107c0.496-3.118,1.837-6.548,4.193-9.69c0.274-0.409,0.597-0.783,0.935-1.154
					c0.335-0.372,0.659-0.762,1.014-1.129c0.76-0.681,1.477-1.447,2.352-2.051c1.667-1.314,3.589-2.415,5.727-3.186
					c4.31-1.559,9.49-1.477,14.033,0.704c4.524,2.134,8.369,6.219,9.816,11.409c1.455,5.182-0.239,11.144-4.224,14.898
					c-2.006,1.859-4.424,3.238-7.225,3.67c-2.729,0.45-5.559-0.121-7.932-1.425c-2.367-1.319-4.27-3.455-5.291-5.863
					c-1.071-2.563-0.998-5.396,0.048-7.807c1.023-2.399,3.033-4.36,5.334-5.245c2.475-0.949,5.15-0.61,7.198,0.684
					c2.046,1.291,3.451,3.386,3.597,5.745c0.14,2.3-1.022,4.488-2.761,5.661c-0.425,0.297-0.898,0.548-1.368,0.713
					c-0.525,0.197-1.017,0.269-1.531,0.297c-1.018,0.043-2.016-0.221-2.837-0.719c-0.829-0.491-1.478-1.207-1.897-2.002
					c-0.128-0.245-0.181-0.366-0.266-0.61c-0.084-0.227-0.129-0.446-0.173-0.663c-0.07-0.439-0.07-0.879-0.008-1.301
					c0.259-1.709,1.562-3.003,2.998-3.314c1.466-0.32,2.843,0.463,3.429,1.484c0.655,1.038,0.414,2.289-0.179,2.965
					c-0.58,0.71-1.416,0.954-2.021,0.836c-0.613-0.106-0.989-0.436-1.183-0.67c-0.197-0.242-0.257-0.392-0.257-0.392
					s0.07,0.147,0.278,0.374c0.204,0.22,0.592,0.516,1.177,0.581c0.573,0.08,1.325-0.197,1.818-0.874
					c0.493-0.65,0.64-1.743,0.039-2.611c-0.554-0.874-1.773-1.477-2.975-1.153c-1.179,0.306-2.246,1.468-2.384,2.873
					c-0.189,1.396,0.702,2.901,2.084,3.642c0.687,0.369,1.494,0.565,2.305,0.507c0.396-0.029,0.829-0.112,1.178-0.256
					c0.409-0.155,0.773-0.365,1.124-0.623c1.405-1.003,2.293-2.818,2.129-4.657c-0.045-0.447-0.135-0.93-0.294-1.329
					c-0.054-0.191-0.186-0.444-0.297-0.679c-0.089-0.164-0.242-0.398-0.358-0.596c-0.538-0.802-1.27-1.482-2.12-1.98
					c-1.678-1.029-3.945-1.187-5.764-0.436c-1.969,0.841-3.572,2.419-4.415,4.43c-0.86,1.98-0.857,4.393-0.01,6.373
					c0.921,2.116,2.536,3.867,4.56,4.984c2.027,1.086,4.43,1.552,6.725,1.149c1.161-0.201,2.194-0.55,3.289-1.122
					c1.025-0.594,2.024-1.252,2.867-2.089c3.486-3.224,5.034-8.428,3.794-12.978c-0.12-0.582-0.342-1.08-0.515-1.632l-0.389-0.852
					l-0.194-0.425l-0.203-0.341c-0.573-1.032-1.239-2.007-2.007-2.886c-1.524-1.769-3.403-3.19-5.451-4.177
					c-4.097-1.985-8.833-2.214-12.789-0.903c-1.999,0.655-3.861,1.651-5.458,2.847c-0.845,0.546-1.537,1.255-2.277,1.879
					c-0.345,0.338-0.661,0.701-0.988,1.045c-0.33,0.342-0.648,0.69-0.917,1.072c-2.297,2.935-3.737,6.151-4.353,9.145
					c-0.635,2.993-0.609,5.718-0.269,7.9c0.362,2.184,0.878,3.854,1.322,4.964C405.158,155.395,405.408,155.981,405.408,155.981z"/>
				<path style="fill:#ED8080;" d="M324.178,552.207c3.368-2.474-3.091-9.315-5.62-11.464c3.529,2.801,11.904,8.282,13.458,3.837
					c1.375-3.932-5.805-6.153-9.525-6.553c3.665-0.056,11.283-1.368,10.563-5.104c-1.057-5.493-11.07-1.708-14.284,1.101
					c1.522-1.919,4.376-6.949,3.547-9.102c-2.582-6.708-7.995,4.514-8.251,8.174c0.069-2.603-0.969-11.012-4.695-9.903
					c-4.142,1.233-0.889,9.917,1.73,11.806c-3.929-2.328-14.506,0.341-11.111,6.446c2.353,4.23,9.731,1.48,12.563-0.734
					c-1.762,2.041-4.427,9.517-1.69,11.556c4.504,3.356,6.729-4.975,5.409-8.269C318.031,545.766,320.177,555.147,324.178,552.207z
					 M313.585,538.834c-0.717-1.447-0.126-3.201,1.321-3.919c1.447-0.717,3.201-0.126,3.919,1.321s0.126,3.201-1.321,3.919
					C316.057,540.872,314.303,540.281,313.585,538.834z"/>
				<path style="fill:#ED8080;" d="M648.879,407.334c-2.699,0.934,0.134,6.705,1.351,8.62c-1.737-2.542-6.096-7.813-8.009-5.225
					c-1.692,2.289,2.545,5.19,4.893,6.203c-2.403-0.705-7.641-1.388-7.927,1.196c-0.42,3.799,6.88,3.353,9.546,2.17
					c-1.381,0.945-4.262,3.651-4.156,5.224c0.329,4.901,6.131-1.33,7.039-3.667c-0.571,1.685-1.594,7.384,1.063,7.413
					c2.953,0.033,2.585-6.294,1.258-8.056c2.094,2.314,9.538,2.71,8.556-1.961c-0.68-3.237-6.052-2.933-8.348-2.061
					c1.563-0.976,4.814-5.317,3.44-7.202c-2.262-3.102-5.398,1.887-5.203,4.304C651.589,412.782,652.086,406.224,648.879,407.334z
					 M653.09,418.205c0.176,1.089-0.565,2.115-1.655,2.291c-1.089,0.176-2.115-0.565-2.291-1.655s0.565-2.115,1.655-2.291
					C651.889,416.375,652.914,417.116,653.09,418.205z"/>
				<path style="fill:#ED8080;" d="M541.235,483.07c-1.567-1.654-4.829,2.305-5.821,3.819c1.275-2.1,3.672-7.003,1.162-7.541
					c-2.221-0.477-2.935,3.558-2.898,5.599c-0.279-1.979-1.506-6.011-3.479-5.368c-2.9,0.945-0.172,6.105,1.566,7.653
					c-1.142-0.693-4.057-1.896-5.165-1.301c-3.454,1.852,2.985,4.019,4.983,3.909c-1.413,0.14-5.892,1.272-5.039,3.213
					c0.948,2.157,5.426-0.193,6.27-1.738c-0.993,2.284,1.17,7.825,4.242,5.573c2.129-1.56,0.14-5.365-1.25-6.747
					c1.224,0.815,5.45,1.749,6.367,0.13c1.51-2.665-3.148-3.303-4.841-2.365C538.167,486.834,543.097,485.036,541.235,483.07z
					 M534.719,489.71c-0.734,0.486-1.723,0.285-2.21-0.449c-0.486-0.734-0.286-1.723,0.449-2.21s1.723-0.285,2.21,0.449
					C535.654,488.234,535.453,489.223,534.719,489.71z"/>
				<path style="fill:#ED8080;" d="M606.536,182.645c-0.561-3.202-7.558-1.064-9.929-0.044c3.17-1.492,9.883-5.433,7.322-8.052
					c-2.265-2.316-6.293,1.919-7.856,4.373c1.227-2.573,2.944-8.334,0.092-9.123c-4.193-1.161-5.014,7.123-4.167,10.333
					c-0.811-1.723-3.33-5.45-5.117-5.616c-5.566-0.518,0.383,7.129,2.845,8.573c-1.79-0.947-8.008-3.129-8.522-0.149
					c-0.572,3.312,6.603,4.045,8.824,2.873c-2.979,1.933-4.773,10.225,0.654,9.968c3.76-0.178,4.392-6.269,3.828-9.007
					c0.813,1.933,5.102,6.372,7.468,5.17c3.894-1.979-1.142-6.407-3.893-6.626C599.925,184.703,607.203,186.449,606.536,182.645z
					 M593.559,185.407c-1.256,0-2.274-1.018-2.274-2.274c0-1.256,1.018-2.274,2.274-2.274s2.274,1.018,2.274,2.274
					C595.833,184.389,594.815,185.407,593.559,185.407z"/>
				<path style="fill:#ED8080;" d="M383.79,186.956c-0.517-2.949-6.963-0.98-9.148-0.041c2.921-1.374,9.105-5.006,6.746-7.418
					c-2.087-2.134-5.797,1.768-7.238,4.029c1.131-2.37,2.713-7.678,0.085-8.405c-3.862-1.069-4.619,6.562-3.839,9.519
					c-0.748-1.588-3.068-5.021-4.714-5.174c-5.128-0.478,0.353,6.568,2.621,7.898c-1.649-0.873-7.377-2.883-7.851-0.138
					c-0.527,3.051,6.083,3.727,8.129,2.647c-2.745,1.781-4.397,9.42,0.602,9.184c3.464-0.164,4.046-5.775,3.527-8.298
					c0.749,1.781,4.7,5.871,6.88,4.763c3.588-1.823-1.052-5.903-3.587-6.104C377.699,188.852,384.404,190.46,383.79,186.956z
					 M371.834,189.5c-1.157,0-2.095-0.938-2.095-2.095s0.938-2.095,2.095-2.095c1.157,0,2.095,0.938,2.095,2.095
					S372.991,189.5,371.834,189.5z"/>
				<path style="fill:#ED8080;" d="M311.406,421.843c1.796-1.119-1.201-4.822-2.395-6.005c1.674,1.55,5.691,4.641,6.647,2.456
					c0.846-1.932-2.694-3.331-4.557-3.676c1.853,0.113,5.75-0.255,5.531-2.17c-0.322-2.814-5.523-1.29-7.255,0.005
					c0.842-0.91,2.478-3.34,2.142-4.459c-1.045-3.487-4.211,1.971-4.482,3.809c0.135-1.312-0.064-5.598-1.989-5.181
					c-2.139,0.463-0.831,4.973,0.418,6.028c-1.894-1.327-7.338-0.387-5.859,2.826c1.025,2.227,4.856,1.122,6.371,0.114
					c-0.969,0.962-2.603,4.635-1.299,5.77c2.145,1.868,3.59-2.252,3.05-3.967C308.551,418.353,309.272,423.173,311.406,421.843z
					 M306.573,414.682c-0.306-0.758,0.06-1.621,0.818-1.928c0.758-0.306,1.621,0.06,1.928,0.818c0.306,0.758-0.06,1.621-0.818,1.928
					C307.743,415.806,306.88,415.44,306.573,414.682z"/>
				<path style="fill:#ED8080;" d="M188.141,448.013c-4.968,0.562-2.34,11.504-0.995,15.241
					c-1.994-5.007-7.419-15.681-11.678-11.994c-3.768,3.261,2.359,9.841,5.981,12.471c-3.835-2.125-12.521-5.299-13.999-0.994
					c-2.174,6.329,10.468,8.364,15.475,7.363c-2.722,1.085-8.678,4.604-9.101,7.332c-1.316,8.497,10.982,0.078,13.428-3.568
					c-1.622,2.66-5.552,12.002-1.025,13.07c5.032,1.187,6.828-9.76,5.236-13.279c2.69,4.755,15.254,8.284,15.366-0.072
					c0.078-5.79-9.215-7.329-13.471-6.719c3.044-1.068,10.26-7.238,8.635-10.984c-2.675-6.164-9.944,1.155-10.536,5.359
					C190.683,458.357,194.043,447.346,188.141,448.013z M191.168,468.196c-0.117,1.928-1.776,3.396-3.704,3.279
					s-3.396-1.776-3.279-3.704s1.776-3.396,3.704-3.279S191.286,466.268,191.168,468.196z"/>
				<path style="fill:#ED8080;" d="M265.1,337.796c-3.751-3.618-10.797,5.762-12.906,9.324c2.698-4.928,7.67-16.377,1.879-17.35
					c-5.123-0.861-6.339,8.432-6.046,13.089c-0.841-4.493-4.06-13.579-8.5-11.907c-6.528,2.458,0.234,13.966,4.364,17.324
					c-2.679-1.466-9.464-3.914-11.935-2.441c-7.701,4.587,7.233,8.875,11.786,8.418c-3.214,0.464-13.331,3.512-11.182,7.858
					c2.389,4.831,12.377-0.998,14.146-4.615c-2.033,5.32,3.477,17.758,10.265,12.297c4.703-3.783-0.233-12.272-3.55-15.286
					c2.88,1.736,12.631,3.435,14.56-0.359c3.176-6.244-7.533-7.222-11.304-4.905C258.478,346.71,269.557,342.095,265.1,337.796z
					 M250.895,353.635c-1.627,1.187-3.908,0.829-5.095-0.798s-0.83-3.908,0.798-5.095c1.627-1.187,3.908-0.829,5.095,0.798
					C252.88,350.168,252.523,352.449,250.895,353.635z"/>
			</g>
			<g>
				<path d="M438.379,700.18c0.151-0.265,0.284-0.541,0.391-0.828c-0.142,0.294-0.294,0.569-0.455,0.828H438.379z"/>
				<path d="M436.427,430.891c7.022-4.35,17.193-5.796,25.167-7.407c27.206-5.497,68.929-11.391,92.908-26.984
					c17.736-11.946,37.194-32.172,29-54c2.964,58.598-93.887,54.539-129.972,60.536c10.568-19.892,12.247-43.6,28.799-59.096
					c27.173-25.44,79.734-46.944,70.173-85.44c-1.282,36.928-57.568,52.717-81.298,72.512c0.407-13.182,0.683-26.547,6.121-38.475
					c9.502-20.846,41.12-51.566,24.178-76.037c11.304,31.262-35.103,58.401-43.441,85.74c-4.896-12.87-12.575-23.851-15.901-37.422
					c-8.658-35.319,16.132-63.584,29.342-80.319c-23.785,13.118-54,46-46,91c-29-29-38.982-65.018-27-90
					c-20.252,20.564-12,61,10.3,92.273c13.809,19.365,25.451,34.606,24.805,59.794c-0.307,11.961-2.179,24.709-5.264,36.523
					c-5.07-20.871-17.482-30.323-35.841-40.59c-21.386-11.96-54.135-25.478-57.938-54.077c-6.725,39.539,45.364,51.688,64.03,76.632
					c4.289,5.731,7.594,13.588,9.063,21.008c2.106,10.636,3.106,28.026-1.767,38.051c-5.189,10.674-17.303,20.588-24.316,30.483
					c-8.576-29.575-28.992-49.696-56.864-61.713c-18.98-8.183-45.414-18.175-45.499-43.134
					c-13.378,34.9,35.586,52.995,54.746,69.168c12.493,10.546,21.068,24.681,25.228,40.402c1.1,4.159,1.91,8.447,2.484,12.712
					c1.97,14.628-5.338,24.852-9.357,38.734C316.498,463.851,220.501,464.5,197.501,418.5c12,53,104.616,63.817,136.645,97.222
					c4.083,4.259,9.778,10.398,11.862,16.05c2.7,7.321,0.645,18.948,1.879,27.135c3.044,20.208,12.031,38.449,19.577,57.219
					c5.628,14,11.661,28.959,9.227,44.351c-2.477,15.667-17.768,26.51-25.939,39.704h3.354c-0.407-2.89,2.294-6.991,4.096-8.42
					c-0.695,2.457-1.409,4.456-1.55,7.102c-0.004,0.07-0.007,0.142-0.011,0.212c3.156-5.322,9.13-10.375,13.818-12.873
					c-1.365,2.403-3.36,4.687-4.78,7.208c-1.214,2.156-2.005,4.494-2.902,6.772h1.169c3.033-3.324,6.949-6.068,10.854-7.655
					c-1.814,2.435-3.387,4.9-4.491,7.655h1.597c0.372-1.419,1-3.094,1.571-4.05c0.078,1.284,0.15,2.678,0.177,4.05h0.378
					c0.292-1.084,0.682-2.159,0.977-3.141c-0.101,1.067,0.152,2.11,0.444,3.141h0.981c1.126-7.257,0.431-16.24-2.964-22.212
					c3.483,4.874,5.55,9.002,7.783,14.531c0.722,1.789,1.534,4.327,2.116,6.772c0.013-0.222,0.018-0.448,0.009-0.679
					c-0.106-2.592-0.454-5.102-0.923-7.657c-0.945-5.146-1.019-10.711,0.43-15.753c0.17,2.744-0.399,5.378,0.056,8.162
					c0.403,2.466,0.812,4.805,1.683,7.151c0.579,1.559,1.394,3.501,2.049,5.538c1.165-3.126,1.165-7.018-0.501-13.097
					c2.237,3.689,4.332,6.897,5.007,12.812c0.104,0.916,0.216,1.831,0.35,2.732c1.09-1.568,2.687-2.899,4.057-3.745
					c-1.241,1.255-2.377,3.308-3.007,5.445h6.049c2.06-8.481,0.159-15.317-3.381-25.652c1.706,3.251,3.451,6.826,4.883,10.472
					c1.353,3.445,2.633,7.125,3.587,10.878c2.068-3.988,4.772-7.943,6.432-10.403c4.463-6.613,10.54-11.939,15.402-18.205
					c-4.552,6.137-8.071,13.849-11.207,20.759c-1.813,3.996-3.608,7.479-4.483,11.191c2.773-3.896,13.521-12.013,15.608-13.269
					c-3.311,4.573-5.519,8.963-6.345,14.23h1.002c1.123-1.454,1.891-3.598,2.256-5.02c-0.012,1.576,0.197,3.359,0.107,5.02h0.811
					c0.78-0.729,1.828-1.376,2.538-1.882c-0.59,0.493-1.192,1.227-1.665,1.882h2.693c-0.374-1.695-0.347-3.752-0.362-5.18
					c-0.027-2.552,0.515-5.024,1.534-7.371c0.265,1.166-0.541,2.866-0.665,4.155c-0.113,1.176-0.068,2.504,0.194,3.642
					c0.355,1.546,1.229,3.242,1.078,4.755h0.308c0.165-2.731,0.483-5.596-0.589-8.136c2.182,1.642,2.776,5.28,3.297,8.136h0.731
					c0.491-3.003,0.425-6.009-0.262-9.047c-1.086-4.798-2.136-10.497-5.018-14.587c5.759,4.878,8.766,12.588,9.696,20.133
					c1.867-5.857,1.575-14.195,3.713-18.41c-0.638,5.284-1.577,9.937-1.332,15.288c0.056,1.228,0.349,3.736-0.416,5.795
					c0.491-1.016,0.89-2.227,1.359-3.568c1.688-4.829,3.565-9.687,6.979-13.59c-0.747,5.523-0.815,10.997-0.436,16.45
					c0.049-0.149,0.092-0.292,0.145-0.445c0.43-1.257,1.09-3.146,0.547-4.404c0.719,1.588,0.949,3.447,1.389,5.166
					c0.103-0.796,0.152-1.572,0.117-2.297c0.413,0.84,1.166,2.008,1.711,3.235c-0.706-6.149-1.386-13.618,1.521-17.703
					c0.974,3.999,1.171,10.655,3.076,15.655c0.185-0.627,0.382-1.248,0.573-1.862c0.565-1.815,1.494-4.266,0.488-6.061
					c1.065,1.923,1.404,4.012,1.884,6.166c0.147,0.658,0.297,1.395,0.417,2.162c1.952-5.282,0.973-15.558,0.789-19.041
					c-0.958-18.115-5.798-36.338-11.471-53.496c-6.846-20.709-19.451-37.452-30.874-55.769c-5.617-9.008-11.38-18.707-9.831-29.475
					c1.283-8.92,5.539-18.231,10.721-25.545c5.054-7.133,11.524-12.627,19.248-16.688c37.725-19.833,106.626-6.526,124.6-56.155
					c-39.654,44.455-114.189,7.063-156.01,51.372c2.562-15.373,7.21-34.095,16.372-46.833
					C425.826,441.422,431.191,434.134,436.427,430.891z"/>
			</g>
		</g>
		<path id="SVGID_x5F_00000142898961060204235620000001185698889161811631_x5F_" style="fill:none;" d="M180.19,223.374
			C222,176,263,148,311.707,140.831"/>
		<text>		<textPath  xlink:href="#SVGID_x5F_00000142898961060204235620000001185698889161811631_x5F_" startOffset="7.129%">
<tspan  style="font-family:'GoodDog'; font-size:43px;">compeer</tspan>		</textPath>
</text>
	</g>
</g>
</svg>
