<?xml version="1.0" encoding="iso-8859-1"?>
<!-- Uploaded to: SVG Repo, www.svgrepo.com, Generator: SVG Repo Mixer Tools -->
<svg height="800px" width="800px" version="1.1" id="Layer_1" xmlns="http://www.w3.org/2000/svg" xmlns:xlink="http://www.w3.org/1999/xlink" 
	 viewBox="0 0 512 512" xml:space="preserve">
<g>
	<path style="fill:#9CAC74;" d="M248.258,403.957c-16.732-38.57-7.964-63.72-0.227-85.909c7.372-21.143,14.335-41.113,0.227-73.636
		l15.485-6.717c16.732,38.57,7.964,63.721,0.227,85.91c-7.372,21.143-14.335,41.113-0.227,73.636L248.258,403.957z"/>
	<path style="fill:#9CAC74;" d="M256,0v250.059c47.869-28.458,78.859-73.863,78.859-125.029C334.859,73.863,303.869,28.447,256,0z"
		/>
</g>
<path style="fill:#BCC987;" d="M256,0c27.378,28.447,45.101,73.863,45.101,125.029S283.378,221.6,256,250.059l-45.011-125.029L256,0
	z"/>
<path style="fill:#D4ED85;" d="M177.139,125.028c0,51.164,30.988,96.574,78.862,125.028V0
	C208.126,28.453,177.139,73.864,177.139,125.028z"/>
<path style="fill:#705750;" d="M399.383,443.268c-3.646,0-7.236,0.191-10.78,0.563L463.253,512h33.758
	C482.664,471.94,444.371,443.268,399.383,443.268z"/>
<path style="fill:#87635C;" d="M463.253,512H14.989c14.347-40.06,52.64-68.732,97.629-68.732c13.728,0,26.838,2.678,38.833,7.528
	c22.989-33.049,61.237-54.7,104.549-54.7c43.312,0,81.56,21.65,104.549,54.7c8.811-3.567,18.229-5.953,28.053-6.965
	C423.205,448.006,451.922,475.192,463.253,512z"/>
<g>
	<circle style="fill:#705750;" cx="103.807" cy="477.623" r="8.44"/>
	<circle style="fill:#705750;" cx="333.363" cy="477.623" r="8.44"/>
	<circle style="fill:#705750;" cx="304.105" cy="449.491" r="8.44"/>
</g>
</svg>