<?xml version="1.0" encoding="utf-8"?>
<!-- Uploaded to: SVG Repo, www.svgrepo.com, Generator: SVG Repo Mixer Tools -->
<svg fill="#000000" height="800px" width="800px" version="1.2" baseProfile="tiny" id="Layer_1" xmlns="http://www.w3.org/2000/svg" xmlns:xlink="http://www.w3.org/1999/xlink"
	  viewBox="-63 65 128 128" xml:space="preserve">
<path d="M53,84.6h-5.1c-0.3-2.6-1.3-4.7-2.7-6.6l3.8-3.8c0.7-0.7,0.7-1.7,0-2.3s-1.7-0.7-2.3,0l-3.8,3.9c-1.8-1.6-4-2.3-6.6-2.7V68
	c0-1-0.7-1.7-1.7-1.7s-1.7,0.7-1.7,1.7v5.1c-2.6,0.3-4.7,1.3-6.6,2.7l-3.8-3.8c-0.7-0.7-1.7-0.7-2.3,0c-0.7,0.7-0.7,1.7,0,2.3
	l3.8,3.8c-1.6,1.8-2.3,4-2.7,6.6h-5.1c-1,0-1.7,0.7-1.7,1.7c0,1,0.7,1.7,1.7,1.7h5.1c0.3,2.6,1.3,4.7,2.7,6.6l-3.8,3.8
	c-0.7,0.7-0.7,1.7,0,2.3c0.3,0.3,0.9,0.6,1.1,0.6c0.2,0,0.9-0.1,1.1-0.6l3.9-3.8c1.8,1.6,4,2.3,6.6,2.7v5.1c0,1,0.7,1.7,1.7,1.7
	s1.7-0.7,1.7-1.7v-5.1C39,99.4,41,98.5,43,97l3.8,3.8c0.3,0.3,0.9,0.6,1.1,0.6c0.3,0,0.9-0.1,1.1-0.6c0.7-0.7,0.7-1.7,0-2.3
	l-3.8-3.8c1.6-1.8,2.3-4,2.7-6.6h5.1c1,0,1.7-0.7,1.7-1.7C54.7,85.4,54,84.6,53,84.6z M34.6,96.3c-5.6,0-10-4.4-10-10
	c0-5.6,4.4-10,10-10s10,4.4,10,10C44.7,91.9,40.1,96.3,34.6,96.3z M65,185.7v7.3H11.2H-33h-30v-7.3h27.6c4.3-7.4,13.9-13,25.3-13.5
	c0.1-1,0.2-2,0.4-3.2c0.9-7.9-4.2-15.1-8.7-21.6c-3.1-0.5-10.4-0.6-15.1-4.9c-5.8-5.2-7.7-16.2-6.9-16c0.8,0.2,9.6-1.5,15.4,3.7
	c3.6,3.3,5.3,10,6.8,13.5c3.4,4.7,7.9,11.7,9.8,18.9c1.8-10.7,3-19.8,5-28.2c-0.6-3.6-3.3-11.6-0.9-17.4c3.2-7.7,14-12.3,14-11.4
	c0.1,0.9,5.2,9.9,2,17.7c-2.5,6-10.7,10.3-13.2,12.4c-2.6,10.5-4.3,20.3-6.3,33.5c-0.2,1.1-0.3,2.2-0.4,3.1
	c11.7,0.2,21.6,5.9,26,13.5H65z"/>
</svg>