<?xml version="1.0" encoding="utf-8"?><!-- Uploaded to: SVG Repo, www.svgrepo.com, Generator: SVG Repo Mixer Tools -->
<svg width="800px" height="800px" viewBox="0 0 400 400" fill="none" xmlns="http://www.w3.org/2000/svg">
<path d="M60.6479 296.839C59.4405 268.494 54.7751 239.234 56.7238 211.017" stroke="#000000" stroke-opacity="0.9" stroke-width="16" stroke-linecap="round" stroke-linejoin="round"/>
<path d="M128.734 212.497C129.803 235.516 137.171 280.09 136.009 293.88" stroke="#000000" stroke-opacity="0.9" stroke-width="16" stroke-linecap="round" stroke-linejoin="round"/>
<path d="M48.832 215.456C112.141 136.681 87.1436 28.3291 136.134 208.367" stroke="#000000" stroke-opacity="0.9" stroke-width="16" stroke-linecap="round" stroke-linejoin="round"/>
<path d="M139.094 211.017C209.675 206.006 281.569 206.381 352.169 200.659" stroke="#000000" stroke-opacity="0.9" stroke-width="16" stroke-linecap="round" stroke-linejoin="round"/>
<path d="M106.539 110.398C162.246 108.257 218.358 107.433 273.744 103" stroke="#000000" stroke-opacity="0.9" stroke-width="16" stroke-linecap="round" stroke-linejoin="round"/>
<path d="M278.184 104.48C304.483 132.777 326.301 164.844 350.688 194.741" stroke="#000000" stroke-opacity="0.9" stroke-width="16" stroke-linecap="round" stroke-linejoin="round"/>
<path d="M339.023 203.619C343.181 230.244 343.115 256.806 343.115 283.522" stroke="#000000" stroke-opacity="0.9" stroke-width="16" stroke-linecap="round" stroke-linejoin="round"/>
<path d="M56.2285 210.569C78.3136 210.264 100.702 212.188 122.814 211.226" stroke="#000000" stroke-opacity="0.9" stroke-width="16" stroke-linecap="round" stroke-linejoin="round"/>
<path d="M97.9102 120.756C98.434 178.891 98.8912 237.165 98.8912 295.359" stroke="#000000" stroke-opacity="0.9" stroke-width="16" stroke-linecap="round" stroke-linejoin="round"/>
<path d="M222.941 288.36C227.002 250.397 207.766 228.166 249.584 228.166C251.841 228.166 265.955 226.611 267.003 227.654C275.513 236.123 267.003 275.803 267.003 289.441" stroke="#000000" stroke-opacity="0.9" stroke-width="16" stroke-linecap="round" stroke-linejoin="round"/>
<path d="M169.888 219.2C169.888 223.324 169.888 227.452 169.888 231.576C169.888 235.163 167.187 249.979 169.888 252.717C171.454 254.312 202.111 254.168 202.373 253.23C205.771 241.153 203.388 225.26 203.388 212.497" stroke="#000000" stroke-opacity="0.9" stroke-width="16" stroke-linecap="round" stroke-linejoin="round"/>
<path d="M283.661 207.601C290.448 207.813 297.096 207.646 303.604 207.099C313.365 206.279 323.85 206.279 323.85 208.188C323.85 210.098 323.85 215.24 323.85 218.311C323.85 221.383 323.85 250.089 323.85 252.358C323.85 254.627 322.762 254.627 319.997 254.627C317.233 254.627 284.407 256.384 282.578 254.627C280.749 252.869 281.189 224.68 281.189 222.123C281.189 219.566 281.189 216.127 281.189 214.199" stroke="#000000" stroke-opacity="0.9" stroke-width="16" stroke-linecap="round" stroke-linejoin="round"/>
<path d="M119.857 141.472C178.589 138.935 237.218 134.722 295.94 138.611" stroke="#000000" stroke-opacity="0.9" stroke-width="16" stroke-linecap="round" stroke-linejoin="round"/>
<path d="M131.693 170.998C195.531 167.349 261.64 172.069 325.532 170.863" stroke="#000000" stroke-opacity="0.9" stroke-width="16" stroke-linecap="round" stroke-linejoin="round"/>
<path d="M130.215 233.202C141.835 230.636 153.662 229.62 165.727 228.785" stroke="#000000" stroke-opacity="0.9" stroke-width="16" stroke-linecap="round" stroke-linejoin="round"/>
<path d="M207.158 222.855C231.457 221.415 255.274 216.28 279.663 213.977" stroke="#000000" stroke-opacity="0.9" stroke-width="16" stroke-linecap="round" stroke-linejoin="round"/>
<path d="M325.533 219.896C328.986 219.896 332.438 219.896 335.891 219.896" stroke="#000000" stroke-opacity="0.9" stroke-width="16" stroke-linecap="round" stroke-linejoin="round"/>
<path d="M139.094 265.511C165.011 262.808 191.454 263.345 217.517 261.583" stroke="#000000" stroke-opacity="0.9" stroke-width="16" stroke-linecap="round" stroke-linejoin="round"/>
<path d="M269.307 260.241C291.694 257.715 315.048 259.264 337.372 262.203" stroke="#000000" stroke-opacity="0.9" stroke-width="16" stroke-linecap="round" stroke-linejoin="round"/>
<path d="M136.133 289.441C163.087 288.778 190.196 287.961 217.516 287.961" stroke="#000000" stroke-opacity="0.9" stroke-width="16" stroke-linecap="round" stroke-linejoin="round"/>
<path d="M270.785 288.484C292.706 288.019 315.482 286.824 337.371 287.83" stroke="#000000" stroke-opacity="0.9" stroke-width="16" stroke-linecap="round" stroke-linejoin="round"/>
<path d="M63.6289 290.585C81.9178 291.272 100.743 288.916 118.377 291.568" stroke="#000000" stroke-opacity="0.9" stroke-width="16" stroke-linecap="round" stroke-linejoin="round"/>
<path d="M122.817 235.191C105.805 236.138 79.7323 237.153 68.0684 237.153" stroke="#000000" stroke-opacity="0.9" stroke-width="16" stroke-linecap="round" stroke-linejoin="round"/>
<path d="M125.775 264.62C107.985 266.23 90.2591 266.085 72.5059 266.911" stroke="#000000" stroke-opacity="0.9" stroke-width="16" stroke-linecap="round" stroke-linejoin="round"/>
</svg>