<?xml version="1.0" standalone="no"?><svg xmlns="http://www.w3.org/2000/svg" viewBox="0 0 1440 320"><defs>
    <radialGradient id="myGradient">
      <stop offset="0%" stop-color="rgba(238,174,202,1)" />
      <stop offset="100%" stop-color="rgba(148,187,233,1)" />
    </radialGradient>
  </defs>
  <path fill="#00aced" fill-opacity="1" d="M0,128L34.3,133.3C68.6,139,137,149,206,165.3C274.3,181,343,203,411,197.3C480,192,549,160,617,128C685.7,96,754,64,823,42.7C891.4,21,960,11,1029,32C1097.1,53,1166,107,1234,138.7C1302.9,171,1371,181,1406,186.7L1440,192L1440,0L1405.7,0C1371.4,0,1303,0,1234,0C1165.7,0,1097,0,1029,0C960,0,891,0,823,0C754.3,0,686,0,617,0C548.6,0,480,0,411,0C342.9,0,274,0,206,0C137.1,0,69,0,34,0L0,0Z"></path></svg>